<?xml version="1.0" encoding="UTF-8" standalone="no"?>
<!DOCTYPE svg PUBLIC "-//W3C//DTD SVG 1.1//EN" "http://www.w3.org/Graphics/SVG/1.1/DTD/svg11.dtd">
<svg width="100%" height="100%" viewBox="0 0 236 236" version="1.1" xmlns="http://www.w3.org/2000/svg" xmlns:xlink="http://www.w3.org/1999/xlink" xml:space="preserve" style="fill-rule:evenodd;clip-rule:evenodd;stroke-linejoin:round;stroke-miterlimit:1.41421;">
    <g transform="matrix(4.16667,0,0,4.16667,-1515.36,-3611.56)">
        <path d="M391.913,866.773C376.349,866.773 363.686,879.435 363.686,895C363.686,910.564 376.349,923.227 391.913,923.227C407.477,923.227 420.14,910.564 420.14,895C420.14,879.435 407.477,866.773 391.913,866.773M390.525,919.385L392.72,919.41C392.452,919.419 392.183,919.425 391.913,919.425C391.447,919.425 390.985,919.411 390.525,919.385M396.777,918.938L392.026,913.553L387.268,918.98C377.608,917.113 369.958,909.537 367.985,899.914L373.119,895.383L367.855,890.769C369.618,880.72 377.543,872.765 387.578,870.96L392.063,876.042L396.479,871.004C406.306,872.87 414.067,880.642 415.916,890.474L410.477,895.274L415.83,899.967C413.855,909.492 406.316,917.003 396.777,918.938M416.318,895.95L416.334,894.623C416.335,894.749 416.338,894.874 416.338,895C416.338,895.318 416.33,895.635 416.318,895.95" style="fill:rgb(248,238,217);fill-rule:nonzero;"/>
    </g>
    <g transform="matrix(4.16667,0,0,4.16667,-1515.36,-3611.56)">
        <path d="M403.351,896.444L407.674,894.95L403.194,893.189C402.936,891.836 402.443,890.565 401.758,889.421C403.289,886.951 404.679,884.208 405.842,881.168C405.842,881.168 402.499,882.531 397.981,885.55C396.705,884.742 395.263,884.175 393.717,883.915L392.083,879.184L390.247,883.855C385.215,884.522 381.192,888.419 380.333,893.388L376.316,894.776L380.201,896.302C380.353,898.211 380.967,899.991 381.933,901.53C380.374,903.921 378.953,906.545 377.759,909.416C377.759,909.416 381.21,908.263 385.831,905.349C387.27,906.211 388.91,906.77 390.663,906.938L391.908,910.542L393.345,906.885C398.667,906.165 402.856,901.833 403.351,896.444M382.188,895.372C382.188,890.082 386.491,885.778 391.781,885.778C393.35,885.778 394.83,886.159 396.138,886.829C392.028,889.798 387.262,894.017 383.208,899.669C382.557,898.375 382.188,896.916 382.188,895.372M393.443,895.16C393.443,895.786 392.935,896.294 392.309,896.294C391.682,896.294 391.174,895.786 391.174,895.16C391.174,894.534 391.682,894.026 392.309,894.026C392.935,894.026 393.443,894.534 393.443,895.16M391.781,904.965C390.343,904.965 388.979,904.645 387.753,904.076C391.838,901.239 396.524,897.117 400.491,891.356C401.057,892.578 401.375,893.938 401.375,895.372C401.375,900.662 397.071,904.965 391.781,904.965" style="fill:rgb(248,238,217);fill-rule:nonzero;"/>
    </g>
</svg>
