<?xml version="1.0" encoding="UTF-8" standalone="no"?>
<!DOCTYPE svg PUBLIC "-//W3C//DTD SVG 1.1//EN" "http://www.w3.org/Graphics/SVG/1.1/DTD/svg11.dtd">
<svg width="100%" height="100%" viewBox="0 0 3508 2481" version="1.1" xmlns="http://www.w3.org/2000/svg" xmlns:xlink="http://www.w3.org/1999/xlink" xml:space="preserve" style="fill-rule:evenodd;clip-rule:evenodd;stroke-linejoin:round;stroke-miterlimit:1.41421;">
    <g id="Layer1">
        <g transform="matrix(6.93072,0,0,7.1544,-2759.35,-1896.55)">
            <path d="M571.902,392.339L565.47,386.296C564.348,385.242 562.593,385.265 561.498,386.348L559.793,388.036C558.695,389.122 558.657,390.883 559.707,392.015L562.016,394.506L558.693,392.224C557.502,391.406 555.889,391.604 554.931,392.685L553.099,394.753C552.373,395.572 552.431,396.819 553.229,397.567L555.455,399.652L552.637,397.999C551.708,397.453 550.517,397.692 549.87,398.554L548.111,400.896C547.311,401.961 547.353,403.437 548.21,404.456L558.108,416.219C559.649,418.052 561.76,419.314 564.103,419.805L578.271,422.777C579.357,423.004 580.477,422.584 581.144,421.698L588.749,411.601C589.629,410.433 589.487,408.789 588.419,407.791L571.902,392.339Z" style="fill:rgb(217,217,199);fill-rule:nonzero;"/>
        </g>
        <g transform="matrix(6.93072,0,0,7.1544,-2759.35,-1896.55)">
            <path d="M524.14,446.36C522.837,446.59 521.45,446.2 520.446,445.191C518.814,443.554 518.824,440.906 520.461,439.276L637.11,323.227C638.747,321.599 641.395,321.607 643.022,323.244C644.655,324.881 644.645,327.529 643.008,329.159L526.359,445.208C525.731,445.833 524.953,446.217 524.14,446.36" style="fill:rgb(166,171,156);fill-rule:nonzero;"/>
        </g>
        <g transform="matrix(6.93072,0,0,7.1544,-2759.35,-1896.55)">
            <path d="M555.211,410.303C555.211,410.303 557.205,411.988 559.355,409.742C559.355,409.742 562.154,407.806 561.297,405.835C561.297,405.835 563.974,405.618 565.412,403.667C565.412,403.667 567.543,402.273 566.386,400.525C566.386,400.525 571.872,399.388 572.07,397.147C572.269,394.905 568.518,390.475 568.518,390.475L551.072,407.044L555.211,410.303Z" style="fill:rgb(217,217,199);fill-rule:nonzero;"/>
        </g>
        <g transform="matrix(6.93072,0,0,7.1544,-2759.35,-1896.55)">
            <path d="M584.974,404.292C584.275,402.847 580.801,398.846 579.229,394.973C578.154,392.321 576.141,390.165 573.573,388.904C570.824,387.556 567.528,388.05 565.297,390.145L559.548,395.542C559.548,395.542 559.54,401.668 564.074,399.984C566.102,399.231 567.806,398.807 569.072,398.568C569.475,398.492 569.885,398.67 570.106,399.016C570.326,399.363 570.313,399.809 570.073,400.144C568.499,402.329 566.28,405.927 566.818,408.21C567.632,411.672 569.075,417.542 574.956,420.792L579.644,422.496L588.511,409.609L588.733,407.713L584.974,404.292Z" style="fill:rgb(246,244,231);fill-rule:nonzero;"/>
        </g>
        <g transform="matrix(6.93072,0,0,7.1544,-2759.35,-1896.55)">
            <path d="M701.826,376.81C698.862,345.77 650.024,349.325 642.162,331.351C639.657,325.623 632.34,326.54 632.34,326.54L578.33,380.747C578.33,380.747 586.096,376.013 587.598,384.536C590.778,402.57 638.72,398.593 641.59,428.633C645.667,471.326 679.524,479.654 689.437,476.204L735.5,436.577C740.284,432.461 738.676,424.93 732.77,422.707C719.71,417.792 704.477,404.561 701.826,376.81" style="fill:rgb(225,77,84);fill-rule:nonzero;"/>
        </g>
        <g transform="matrix(6.93072,0,0,7.1544,-2759.35,-1896.55)">
            <path d="M732.771,422.708C722.995,419.029 712.005,410.687 705.983,395.089C700.955,404.2 694.903,413.985 694.903,413.985C694.903,413.985 678.4,451.597 669.377,473.137C677.604,477.016 685.456,477.591 689.438,476.205L701.516,465.815C701.638,465.328 701.828,464.877 701.92,464.375C702.389,464.385 702.84,464.305 703.302,464.278L718.788,450.955C718.857,450.626 718.975,450.32 719.025,449.983L721.454,433.426L733.074,422.869L732.771,422.708Z" style="fill:rgb(169,57,61);fill-rule:nonzero;"/>
        </g>
        <g transform="matrix(6.93072,0,0,7.1544,-2759.35,-1896.55)">
            <path d="M652.104,404.422C643.781,419.904 622.83,437.379 622.83,437.379C601.556,444.752 576.075,425.87 576.075,425.87L580.267,418.97L588.53,405.285L600.305,409.652C604.874,411.292 609.964,410.018 613.135,406.402L628.641,388.712C633.884,382.708 642.666,380.502 649.676,384.251C657.512,388.419 656.664,396.14 652.104,404.422" style="fill:rgb(246,244,231);fill-rule:nonzero;"/>
        </g>
        <g transform="matrix(6.93072,0,0,7.1544,-2759.35,-1896.55)">
            <path d="M636.723,394.812C636.723,394.812 626.323,422.513 614.528,426.568C612.542,427.249 610.601,427.735 608.726,428.065C599.419,429.706 591.765,427.523 588.636,426.43C588.354,426.33 588.063,426.198 587.767,426.04L586.008,429.288L583.349,427.834L585.292,424.281C584.811,423.869 584.336,423.427 583.878,422.977L581.637,427.074L578.978,425.62L581.693,420.657C581.105,419.989 580.614,419.396 580.267,418.97L576.075,425.87C576.075,425.87 598.021,442.134 618.187,438.578C619.748,438.303 621.301,437.908 622.83,437.379C622.83,437.379 624.447,436.03 626.961,433.75L636.741,394.825C636.741,394.824 636.741,394.823 636.741,394.823C636.729,394.816 636.723,394.812 636.723,394.812" style="fill:rgb(225,219,202);fill-rule:nonzero;"/>
        </g>
        <g transform="matrix(6.93072,0,0,7.1544,-2759.35,-1896.55)">
            <path d="M707.246,341.397L700.568,331.58C699.376,329.829 699.787,327.448 701.497,326.198C703.281,324.894 705.788,325.316 707.047,327.132L714.159,337.397L711.047,327.046C710.369,324.792 711.81,322.453 714.128,322.044L714.176,322.036C716.242,321.671 718.229,322.994 718.691,325.04L721.175,336.039L721.131,325.137C721.122,323.001 722.82,321.25 724.955,321.192L726.523,321.077C727.921,320.972 729.148,322 729.292,323.394L729.731,327.637L731.24,327.898C732.171,328.059 732.854,328.864 732.859,329.81L732.957,345.933L734.356,359.351C734.356,359.351 718.074,364.399 717.874,363.951C717.674,363.502 707.246,341.397 707.246,341.397" style="fill:rgb(217,217,199);fill-rule:nonzero;"/>
        </g>
        <g transform="matrix(6.93072,0,0,7.1544,-2759.35,-1896.55)">
            <path d="M717.388,335.134L710.833,345.965L713.081,349.8L721.231,357.435L732.347,354.252C731.629,350.613 729.777,342.097 727.894,340.538C726.748,339.588 725.348,339.533 724.196,339.736C722.929,339.959 721.961,340.495 721.961,340.495C722.645,336.142 717.388,335.134 717.388,335.134" style="fill:rgb(209,209,179);fill-rule:nonzero;"/>
        </g>
        <g transform="matrix(6.93072,0,0,7.1544,-2759.35,-1896.55)">
            <path d="M714.639,359.321C714.475,359.149 712.553,357.401 710.868,355.873C709.179,354.34 707.9,352.415 707.14,350.264L705.739,346.299C705.111,344.522 705.73,342.544 707.26,341.442L715.479,335.524C716.494,334.794 717.908,335.011 718.657,336.013C719.581,337.252 720.19,339.26 718.374,342.095L714.423,345.549L714.366,345.805L714.595,345.934C716.717,345.676 722.836,345.171 724.085,347.739C725.602,350.858 726.74,357.309 726.74,357.309L714.639,359.321Z" style="fill:rgb(246,244,231);fill-rule:nonzero;"/>
        </g>
        <g transform="matrix(6.93072,0,0,7.1544,-2759.35,-1896.55)">
            <path d="M715.915,363.813L714.639,359.321L734.44,353.653L735.895,358.476L715.915,363.813Z" style="fill:rgb(246,244,231);fill-rule:nonzero;"/>
        </g>
        <g transform="matrix(6.93072,0,0,7.1544,-2759.35,-1896.55)">
            <path d="M721.018,401.383L648.015,388.649L632.495,477.622L690.488,487.738C698.778,489.184 706.671,483.636 708.117,475.346L721.018,401.383Z" style="fill:rgb(246,244,231);fill-rule:nonzero;"/>
        </g>
        <g transform="matrix(6.93072,0,0,7.1544,-2759.35,-1896.55)">
            <path d="M678.639,402.647L712.039,386.546C714.503,385.358 715.982,382.775 715.759,380.048L714.447,364.037L737.59,357.531C737.59,357.531 748.974,387.138 736.192,405.691C736.192,405.691 667.1,453.431 678.639,402.647" style="fill:rgb(246,244,231);fill-rule:nonzero;"/>
        </g>
        <g transform="matrix(6.93072,0,0,7.1544,-2759.35,-1896.55)">
            <path d="M703.268,396.296C700.579,390.544 695.217,386.19 688.488,385.011L655.734,379.272C649.381,378.158 643.15,380.165 638.716,384.175C635.459,387.09 637.555,390.179 636.741,394.825L622.674,450.812L586.76,452.293C584.122,452.402 581.55,453.157 579.272,454.492L545.594,474.231C538.162,478.588 534.797,488.004 538.647,495.711C541.964,502.353 549.104,505.62 555.901,504.422C557.735,504.098 559.548,503.449 561.252,502.448L589.838,485.694C591.33,484.82 593.015,484.325 594.743,484.253L611.239,483.572C606.924,486.38 603.796,490.79 602.493,495.85L593.061,531.773C591.05,539.577 594.69,548.05 602.104,551.209C605.18,552.52 608.356,552.818 611.32,552.295C617.356,551.231 622.521,546.753 624.149,540.427L630.143,517.708C631.12,514.004 634.236,511.224 638.022,510.638C672.445,505.311 672.801,505.431 675.85,504.45C685.52,500.994 690.788,493.099 691.467,484.785L701.199,406.974C701.947,402.705 705.022,399.947 703.268,396.296" style="fill:rgb(246,244,231);fill-rule:nonzero;"/>
        </g>
        <g transform="matrix(6.93072,0,0,7.1544,-2759.35,-1896.55)">
            <path d="M681.877,427.094C682.321,429.613 680.588,432.024 678.006,432.479C675.424,432.934 672.971,431.261 672.527,428.743C672.083,426.223 673.816,423.813 676.398,423.357C678.98,422.902 681.433,424.575 681.877,427.094" style="fill:rgb(180,218,161);fill-rule:nonzero;"/>
        </g>
        <g transform="matrix(6.93072,0,0,7.1544,-2759.35,-1896.55)">
            <path d="M684.324,416.734C684.68,418.749 683.294,420.678 681.228,421.042C679.164,421.406 677.2,420.068 676.845,418.053C676.491,416.038 677.877,414.109 679.941,413.745C682.007,413.381 683.969,414.719 684.324,416.734" style="fill:rgb(180,218,161);fill-rule:nonzero;"/>
        </g>
        <g transform="matrix(6.93072,0,0,7.1544,-2759.35,-1896.55)">
            <path d="M546.389,474.037L532.71,482.723C529.886,484.517 526.142,483.68 524.349,480.856C519.091,472.576 508.116,470.125 499.836,475.383C498.951,475.944 498.69,477.117 499.251,478.002L524.196,517.288C526.216,520.469 530.432,521.411 533.613,519.39L563.241,500.578L546.389,474.037Z" style="fill:rgb(194,182,156);fill-rule:nonzero;"/>
        </g>
        <g transform="matrix(6.93072,0,0,7.1544,-2759.35,-1896.55)">
            <path d="M565.307,501.04L546.315,471.129L538.731,475.944L557.724,505.855L565.307,501.04Z" style="fill:rgb(194,182,156);fill-rule:nonzero;"/>
        </g>
        <g transform="matrix(6.93072,0,0,7.1544,-2759.35,-1896.55)">
            <path d="M642.68,381.399C639.944,383.1 639.083,386.746 640.649,389.639C644.198,396.193 652.252,401.228 668.702,404.11C677.405,405.634 684.101,405.797 689.305,404.879C693.612,404.12 696.897,402.62 699.452,400.542C702.058,398.421 702.426,394.753 700.561,392.066C697.976,395.436 694.243,397.842 688.57,398.842C683.818,399.68 677.704,399.532 669.759,398.141C651.91,395.013 644.872,389.109 642.68,381.399" style="fill:rgb(225,219,202);fill-rule:nonzero;"/>
        </g>
        <g transform="matrix(6.93072,0,0,7.1544,-2759.35,-1896.55)">
            <path d="M680.905,334.529C698.479,337.608 710.217,354.333 707.137,371.907C706.847,373.563 706.556,375.221 706.247,376.813C705.453,380.821 704.523,384.562 703.075,387.784C699.029,396.773 690.824,401.831 669.759,398.14C638.131,392.597 640.447,378.335 643.527,360.761C646.606,343.187 663.331,331.45 680.905,334.529" style="fill:rgb(246,244,231);fill-rule:nonzero;"/>
        </g>
        <g transform="matrix(6.93072,0,0,7.1544,-2759.35,-1896.55)">
            <path d="M661.109,389.549C652.903,388.111 647.396,380.267 648.833,372.061L650.197,364.278C650.675,361.553 651.873,359.047 653.658,357.034C654.023,356.583 654.533,356.089 655.039,355.629C658.529,352.539 663.126,351.236 667.682,352.034L687.624,355.529C692.365,356.36 696.456,359.441 698.563,363.771C699.975,366.585 700.434,369.781 699.873,372.982L698.509,380.766C697.071,388.971 689.239,394.478 681.051,393.043L661.109,389.549Z" style="fill:rgb(155,142,112);fill-rule:nonzero;"/>
        </g>
        <g transform="matrix(6.93072,0,0,7.1544,-2759.35,-1896.55)">
            <path d="M696.915,372.464L695.552,380.245C694.401,386.814 688.137,391.236 681.569,390.084L661.627,386.59C655.06,385.44 650.643,379.146 651.794,372.578L653.157,364.797C653.545,362.578 654.501,360.611 655.906,359.027C656.255,358.6 656.659,358.213 657.057,357.856C659.728,355.489 663.407,354.334 667.164,354.992L687.105,358.486C691.07,359.181 694.224,361.716 695.86,365.083C696.968,367.29 697.371,369.861 696.915,372.464" style="fill:rgb(140,128,100);fill-rule:nonzero;"/>
        </g>
        <g transform="matrix(6.93072,0,0,7.1544,-2759.35,-1896.55)">
            <path d="M667.557,393.892C667.374,394.939 666.376,395.64 665.328,395.456C664.281,395.272 663.581,394.275 663.764,393.227C663.948,392.18 664.946,391.48 665.993,391.663C667.04,391.847 667.741,392.845 667.557,393.892" style="fill:white;fill-rule:nonzero;"/>
        </g>
        <g transform="matrix(6.93072,0,0,7.1544,-2759.35,-1896.55)">
            <path d="M672.535,394.764C672.351,395.811 671.354,396.512 670.306,396.328C669.259,396.144 668.559,395.147 668.742,394.1C668.926,393.052 669.924,392.352 670.971,392.535C672.018,392.719 672.719,393.717 672.535,394.764" style="fill:white;fill-rule:nonzero;"/>
        </g>
        <g transform="matrix(6.93072,0,0,7.1544,-2759.35,-1896.55)">
            <path d="M677.513,395.637C677.329,396.684 676.332,397.385 675.284,397.201C674.237,397.018 673.537,396.02 673.72,394.972C673.904,393.925 674.902,393.225 675.949,393.408C676.996,393.592 677.696,394.59 677.513,395.637" style="fill:white;fill-rule:nonzero;"/>
        </g>
        <g transform="matrix(6.93072,0,0,7.1544,-2759.35,-1896.55)">
            <path d="M696.868,372.731L695.52,380.424C694.548,380.924 693.416,381.122 692.262,380.92L692.031,380.849C691.251,384.25 690.185,387.204 688.192,389.355C686.15,390.217 683.876,390.49 681.569,390.085L661.627,386.591C659.32,386.187 657.274,385.157 655.647,383.652C654.509,380.922 654.545,377.757 654.969,374.294L654.125,374.237C653.208,374.076 652.392,373.689 651.725,373.146L651.794,372.578L653.173,364.708C653.99,364.394 654.889,364.308 655.836,364.474C656.25,364.546 656.619,364.703 656.988,364.859C658.694,360.523 661.68,357.051 665.363,354.83C665.941,354.839 666.573,354.889 667.164,354.993L687.105,358.487C687.697,358.591 688.308,358.759 688.855,358.946C691.538,362.252 693.167,366.532 693.336,371.136L693.972,371.156C695.127,371.359 696.125,371.93 696.868,372.731" style="fill:rgb(239,186,142);fill-rule:nonzero;"/>
        </g>
        <g transform="matrix(6.93072,0,0,7.1544,-2759.35,-1896.55)">
            <path d="M666.549,369.972C666.361,371.047 665.337,371.766 664.262,371.577C663.187,371.389 662.468,370.365 662.656,369.29C662.844,368.215 663.869,367.496 664.944,367.685C666.019,367.873 666.737,368.897 666.549,369.972" style="fill:rgb(97,58,22);fill-rule:nonzero;"/>
        </g>
        <g transform="matrix(6.93072,0,0,7.1544,-2759.35,-1896.55)">
            <path d="M685.78,373.341C685.592,374.416 684.567,375.135 683.493,374.947C682.417,374.758 681.699,373.734 681.887,372.659C682.076,371.584 683.1,370.865 684.175,371.054C685.25,371.242 685.969,372.266 685.78,373.341" style="fill:rgb(97,58,22);fill-rule:nonzero;"/>
        </g>
        <g transform="matrix(6.93072,0,0,7.1544,-2759.35,-1896.55)">
            <path d="M667.474,377.776L678.893,379.777C679.852,379.945 680.062,381.227 679.208,381.693L676.18,383.348C673.657,384.726 670.513,384.146 668.647,381.959L666.514,379.458C665.888,378.724 666.525,377.61 667.474,377.776" style="fill:rgb(176,48,72);fill-rule:nonzero;"/>
        </g>
        <g transform="matrix(6.93072,0,0,7.1544,-2759.35,-1896.55)">
            <path d="M695.196,371.309L695.86,365.083C694.224,361.716 691.07,359.181 687.105,358.486L667.164,354.992C663.407,354.334 659.728,355.488 657.057,357.856L655.836,364.473C655.836,364.473 656.082,364.772 656.327,365.109L655.177,371.67L657.201,372.025L658.369,365.361L670.11,360.399C669.274,361.968 667.837,363.819 665.471,364.39C665.471,364.39 673.575,365.8 678.461,361.201C677.636,362.792 676.188,364.719 673.764,365.304C673.764,365.304 679.204,366.249 683.858,364.064C685.228,365.072 686.401,366.164 687.186,367.252L690.24,371.491L690.447,377.85L692.471,378.205L693.651,371.474C694.066,371.19 694.571,371.064 695.196,371.309" style="fill:rgb(97,58,22);fill-rule:nonzero;"/>
        </g>
        <g transform="matrix(6.93072,0,0,7.1544,-2759.35,-1896.55)">
            <path d="M653.166,364.746C653.163,364.763 653.16,364.78 653.157,364.797L652.087,370.904C652.09,370.885 652.094,370.866 652.097,370.847L653.157,364.797C653.16,364.78 653.163,364.763 653.166,364.746" style="fill:rgb(85,72,44);fill-rule:nonzero;"/>
        </g>
        <g transform="matrix(6.93072,0,0,7.1544,-2759.35,-1896.55)">
            <path d="M695.86,365.083L695.196,371.309C695.056,371.255 694.922,371.219 694.794,371.198C694.828,371.268 694.863,371.337 694.896,371.407C695.661,371.694 696.331,372.152 696.868,372.731L696.123,376.98C696.126,376.963 696.129,376.947 696.132,376.93L696.915,372.464C697.164,371.041 697.157,369.626 696.917,368.276C696.719,367.158 696.362,366.083 695.86,365.083M653.166,364.746C653.163,364.763 653.159,364.78 653.157,364.797L652.096,370.847C652.096,370.847 652.097,370.844 652.097,370.843L653.166,364.746ZM657.056,357.857C656.658,358.214 656.255,358.601 655.906,359.027C654.519,360.589 653.571,362.526 653.173,364.708C653.456,364.599 653.749,364.518 654.05,364.465C654.513,364.384 654.995,364.369 655.492,364.424C655.633,364.287 655.776,364.154 655.919,364.025L657.056,357.857ZM662.98,354.992C662.974,354.993 662.969,354.994 662.963,354.995C662.969,354.994 662.974,354.993 662.98,354.992" style="fill:rgb(77,64,39);fill-rule:nonzero;"/>
        </g>
        <g transform="matrix(6.93072,0,0,7.1544,-2759.35,-1896.55)">
            <path d="M694.896,371.407C695.811,373.328 696.198,375.511 695.961,377.744C696.023,377.493 696.077,377.239 696.124,376.98L696.868,372.731C696.331,372.153 695.662,371.694 694.896,371.407M683.858,364.065C683.781,364.102 683.703,364.137 683.625,364.172L684.116,364.258C684.031,364.193 683.945,364.129 683.858,364.065M678.461,361.202C677.745,361.876 676.959,362.421 676.14,362.86L677.244,363.054C677.751,362.449 678.15,361.801 678.461,361.202M654.05,364.465C653.749,364.518 653.456,364.599 653.173,364.708C653.17,364.721 653.168,364.733 653.166,364.746L652.098,370.844C652.098,370.84 652.099,370.836 652.1,370.832L652.375,369.263C652.327,369.536 652.289,369.809 652.26,370.081C652.722,368.198 653.607,366.519 654.836,365.135C655.041,364.885 655.264,364.649 655.493,364.424C654.996,364.369 654.513,364.384 654.05,364.465M670.11,360.4L667.761,361.392L669.322,361.666C669.629,361.243 669.891,360.812 670.11,360.4" style="fill:rgb(130,93,57);fill-rule:nonzero;"/>
        </g>
        <g transform="matrix(6.93072,0,0,7.1544,-2759.35,-1896.55)">
            <path d="M662.981,354.992C662.975,354.993 662.97,354.994 662.963,354.995C660.756,355.387 658.713,356.389 657.057,357.857L655.919,364.024C655.942,364.004 655.965,363.983 655.987,363.963C657.647,362.492 659.696,361.49 661.911,361.099C663.261,360.861 664.672,360.85 666.095,361.1L667.761,361.392L670.111,360.4C669.891,360.811 669.63,361.242 669.322,361.665L676.141,362.86C676.96,362.42 677.745,361.876 678.462,361.201C678.151,361.8 677.751,362.448 677.244,363.053L683.626,364.171C683.704,364.136 683.781,364.101 683.859,364.065C683.945,364.129 684.032,364.193 684.117,364.257L686.036,364.594C690,365.288 693.155,367.823 694.791,371.19C694.792,371.193 694.793,371.195 694.795,371.198C694.923,371.218 695.057,371.254 695.197,371.309L695.861,365.083C694.224,361.716 691.071,359.181 687.106,358.486L667.165,354.992C665.742,354.743 664.33,354.754 662.981,354.992" style="fill:rgb(49,30,15);fill-rule:nonzero;"/>
        </g>
        <g transform="matrix(6.93072,0,0,7.1544,-2759.35,-1896.55)">
            <path d="M685.726,390.087L685.732,390.086L685.726,390.087ZM695.465,380.695C694.413,385.611 690.471,389.241 685.751,390.083C690.471,389.241 694.413,385.611 695.465,380.695M695.499,380.529C695.495,380.546 695.492,380.563 695.488,380.581C695.492,380.563 695.495,380.546 695.499,380.529M695.552,380.246C695.548,380.268 695.544,380.289 695.54,380.31C695.544,380.289 695.548,380.268 695.552,380.246" style="fill:rgb(85,72,44);fill-rule:nonzero;"/>
        </g>
        <g transform="matrix(6.93072,0,0,7.1544,-2759.35,-1896.55)">
            <path d="M661.579,386.583C661.595,386.586 661.611,386.589 661.627,386.591C661.611,386.589 661.595,386.586 661.579,386.583M661.529,386.574C661.541,386.576 661.553,386.578 661.565,386.58C661.553,386.578 661.541,386.576 661.529,386.574M661.471,386.563C661.485,386.566 661.5,386.568 661.515,386.571C661.5,386.568 661.486,386.566 661.471,386.563M661.428,386.555C661.435,386.556 661.442,386.557 661.449,386.559C661.442,386.557 661.435,386.556 661.428,386.555M661.395,386.548C661.396,386.549 661.397,386.549 661.397,386.549C661.397,386.549 661.396,386.548 661.395,386.548M695.519,380.424C695.284,380.545 695.039,380.649 694.786,380.733C693.816,382.474 692.438,383.931 690.801,384.996C690.151,386.663 689.32,388.138 688.192,389.355C687.392,389.693 686.556,389.94 685.697,390.092C685.658,390.099 685.62,390.105 685.582,390.111C685.63,390.104 685.678,390.095 685.726,390.087L685.732,390.086C685.738,390.085 685.744,390.084 685.751,390.083C690.471,389.242 694.413,385.611 695.464,380.695C695.473,380.657 695.48,380.619 695.488,380.581C695.492,380.563 695.495,380.546 695.499,380.529C695.505,380.494 695.512,380.459 695.519,380.424M696.132,376.931L695.845,378.572C695.847,378.557 695.85,378.543 695.852,378.528L695.534,380.345C695.536,380.334 695.538,380.322 695.54,380.31C695.544,380.289 695.548,380.268 695.552,380.246L696.132,376.931ZM651.794,372.578C651.544,374.002 651.556,375.414 651.795,376.762C652.457,380.495 654.857,383.749 658.257,385.472C657.302,384.985 656.426,384.373 655.647,383.652C655.014,382.134 654.745,380.482 654.703,378.718C653.563,377.232 652.767,375.487 652.407,373.617C652.166,373.477 651.937,373.32 651.725,373.146L651.794,372.578Z" style="fill:rgb(77,64,39);fill-rule:nonzero;"/>
        </g>
        <g transform="matrix(6.93072,0,0,7.1544,-2759.35,-1896.55)">
            <path d="M695.961,377.744C695.699,378.809 695.3,379.811 694.786,380.732C695.039,380.648 695.284,380.545 695.519,380.424C695.524,380.397 695.529,380.371 695.534,380.344L695.852,378.528C695.897,378.266 695.933,378.005 695.961,377.744M654.703,378.717C654.745,380.481 655.014,382.133 655.647,383.652C656.426,384.373 657.302,384.985 658.257,385.471C659.227,385.963 660.279,386.33 661.395,386.547C661.396,386.548 661.397,386.548 661.397,386.548C661.408,386.55 661.418,386.552 661.428,386.554C661.435,386.555 661.442,386.556 661.449,386.558C661.456,386.559 661.464,386.561 661.471,386.562C661.486,386.565 661.5,386.568 661.515,386.571C661.519,386.572 661.525,386.572 661.529,386.573C661.541,386.575 661.553,386.577 661.565,386.58C661.57,386.58 661.574,386.581 661.579,386.582C661.595,386.585 661.611,386.588 661.627,386.591L681.569,390.085C682.934,390.324 684.286,390.322 685.582,390.111C685.62,390.104 685.658,390.098 685.697,390.091C686.556,389.94 687.392,389.692 688.192,389.354C689.32,388.137 690.151,386.663 690.801,384.996C689.452,385.874 687.928,386.485 686.312,386.77C684.971,387.006 683.568,387.018 682.149,386.769L662.208,383.275C659.107,382.732 656.485,381.041 654.703,378.717M652.26,370.081C652.199,370.328 652.146,370.578 652.1,370.832L651.794,372.578L651.725,373.145C651.937,373.319 652.166,373.477 652.408,373.616C652.188,372.474 652.132,371.286 652.26,370.081" style="fill:rgb(130,93,57);fill-rule:nonzero;"/>
        </g>
        <g transform="matrix(6.93072,0,0,7.1544,-2759.35,-1896.55)">
            <path d="M652.375,369.263L652.1,370.832C652.146,370.579 652.199,370.328 652.26,370.081C652.289,369.81 652.327,369.536 652.375,369.263" style="fill:rgb(71,47,25);fill-rule:nonzero;"/>
        </g>
        <g transform="matrix(6.93072,0,0,7.1544,-2759.35,-1896.55)">
            <path d="M696.133,376.93C696.13,376.947 696.127,376.963 696.124,376.98L695.853,378.528C695.85,378.542 695.848,378.557 695.845,378.571L696.133,376.93" style="fill:rgb(40,33,17);fill-rule:nonzero;"/>
        </g>
        <g transform="matrix(6.93072,0,0,7.1544,-2759.35,-1896.55)">
            <path d="M696.124,376.98C696.077,377.238 696.023,377.493 695.962,377.744C695.934,378.005 695.898,378.266 695.853,378.527L696.124,376.98Z" style="fill:rgb(71,47,25);fill-rule:nonzero;"/>
        </g>
        <g transform="matrix(6.93072,0,0,7.1544,-2759.35,-1896.55)">
            <path d="M706.247,376.813C705.453,380.821 704.523,384.563 703.075,387.785L701.896,383.371L706.247,376.813Z" style="fill:rgb(155,142,112);fill-rule:nonzero;"/>
        </g>
        <g transform="matrix(6.93072,0,0,7.1544,-2759.35,-1896.55)">
            <path d="M705.966,384.076L701.893,383.362L704.921,366.088L708.993,366.802C712.044,367.336 714.084,370.243 713.55,373.295L712.459,379.519C711.924,382.571 709.017,384.611 705.966,384.076" style="fill:rgb(230,227,217);fill-rule:nonzero;"/>
        </g>
        <g transform="matrix(6.93072,0,0,7.1544,-2759.35,-1896.55)">
            <path d="M701.893,383.362L702.536,379.698L702.536,379.697L701.893,383.362Z" style="fill:rgb(208,204,184);fill-rule:nonzero;"/>
        </g>
        <g transform="matrix(6.93072,0,0,7.1544,-2759.35,-1896.55)">
            <path d="M712.456,379.534C712.032,381.916 710.161,383.679 707.908,384.077C707.302,384.184 706.669,384.191 706.028,384.087L706.277,384.13C706.901,384.24 707.519,384.235 708.11,384.131C710.241,383.755 712.009,382.085 712.404,379.83L712.456,379.534Z" style="fill:rgb(218,212,199);fill-rule:nonzero;"/>
        </g>
        <g transform="matrix(6.93072,0,0,7.1544,-2759.35,-1896.55)">
            <path d="M712.913,376.923C712.295,378.795 710.7,380.148 708.815,380.48C708.23,380.583 707.616,380.589 706.995,380.48L702.535,379.698L701.893,383.362L706.028,384.087C706.668,384.191 707.301,384.184 707.907,384.077C710.161,383.679 712.032,381.916 712.455,379.534L712.913,376.923Z" style="fill:rgb(201,193,175);fill-rule:nonzero;"/>
        </g>
        <g transform="matrix(6.93072,0,0,7.1544,-2759.35,-1896.55)">
            <path d="M642.862,365.707C642.246,369.746 641.848,373.58 642.116,377.103L644.724,373.353L642.862,365.707Z" style="fill:rgb(155,142,112);fill-rule:nonzero;"/>
        </g>
        <g transform="matrix(6.93072,0,0,7.1544,-2759.35,-1896.55)">
            <path d="M640.657,372.632L644.729,373.345L647.756,356.07L643.684,355.357C640.633,354.822 637.725,356.862 637.191,359.914L636.1,366.139C635.566,369.19 637.606,372.097 640.657,372.632" style="fill:rgb(230,227,217);fill-rule:nonzero;"/>
        </g>
        <g transform="matrix(6.93072,0,0,7.1544,-2759.35,-1896.55)">
            <path d="M636.09,366.198L636.046,366.45C635.541,369.329 637.467,372.073 640.346,372.578L641.896,372.849L640.657,372.632C637.625,372.101 635.592,369.228 636.09,366.198" style="fill:rgb(201,108,101);fill-rule:nonzero;"/>
        </g>
        <g transform="matrix(6.93072,0,0,7.1544,-2759.35,-1896.55)">
            <path d="M645.371,369.681L644.729,373.346L645.372,369.681L645.371,369.681Z" style="fill:rgb(208,204,184);fill-rule:nonzero;"/>
        </g>
        <g transform="matrix(6.93072,0,0,7.1544,-2759.35,-1896.55)">
            <path d="M636.555,363.543L636.09,366.198C635.592,369.228 637.625,372.101 640.657,372.633L641.896,372.85L642.078,372.881L642.372,372.933L644.729,373.346L645.371,369.682L640.912,368.901C638.292,368.441 636.484,366.126 636.555,363.543" style="fill:rgb(201,193,175);fill-rule:nonzero;"/>
        </g>
        <g transform="matrix(6.93072,0,0,7.1544,-2759.35,-1896.55)">
            <path d="M690.646,353.965L678.238,351.791L678.697,349.169L691.105,351.344L690.646,353.965Z" style="fill:rgb(164,151,120);fill-rule:nonzero;"/>
        </g>
        <g transform="matrix(6.93072,0,0,7.1544,-2759.35,-1896.55)">
            <path d="M676.848,351.547L672.214,350.735L672.675,348.104L677.309,348.916L676.848,351.547Z" style="fill:rgb(164,151,120);fill-rule:nonzero;"/>
        </g>
        <g transform="matrix(6.93072,0,0,7.1544,-2759.35,-1896.55)">
            <path d="M671.127,350.544L666.493,349.732L666.954,347.102L671.588,347.913L671.127,350.544Z" style="fill:rgb(164,151,120);fill-rule:nonzero;"/>
        </g>
        <g transform="matrix(6.93072,0,0,7.1544,-2759.35,-1896.55)">
            <path d="M634.09,460.704L621.381,474.97C619.906,476.761 617.908,478.046 615.667,478.647L594.742,484.253L611.239,483.572C611.239,483.572 617.995,479.572 623.363,478.419C628.731,477.265 661.036,466.204 661.036,466.204L634.09,460.704Z" style="fill:rgb(225,219,202);fill-rule:nonzero;"/>
        </g>
        <g transform="matrix(6.93072,0,0,7.1544,-2759.35,-1896.55)">
            <path d="M675.747,504.483C675.735,504.487 675.722,504.491 675.709,504.495C675.722,504.491 675.735,504.487 675.747,504.483M675.816,504.461C675.806,504.464 675.797,504.467 675.788,504.47C675.797,504.467 675.806,504.464 675.816,504.461M637.822,510.671C637.888,510.659 637.955,510.648 638.022,510.638C637.955,510.648 637.888,510.659 637.822,510.671M736.191,405.69L736.191,405.691L736.191,405.69ZM736.25,405.606C736.245,405.613 736.239,405.621 736.235,405.628C736.24,405.62 736.245,405.613 736.25,405.606M736.295,405.54C736.29,405.546 736.284,405.556 736.279,405.562C736.285,405.555 736.289,405.548 736.295,405.54M736.338,405.477C736.335,405.481 736.333,405.484 736.329,405.489C736.332,405.485 736.335,405.481 736.338,405.477M736.391,405.398C736.388,405.402 736.384,405.408 736.381,405.412C736.384,405.407 736.388,405.402 736.391,405.398M736.436,405.33C736.432,405.336 736.43,405.339 736.426,405.344C736.429,405.34 736.433,405.335 736.436,405.33" style="fill:rgb(234,232,224);fill-rule:nonzero;"/>
        </g>
        <g transform="matrix(6.93072,0,0,7.1544,-2759.35,-1896.55)">
            <path d="M742.192,385.588C739.851,390.918 734.141,401.092 723.759,403.78C716.366,405.694 707.78,406.235 700.897,409.385L699.008,424.494C715.723,419.791 736.032,405.801 736.19,405.692L736.191,405.692L736.191,405.691C736.206,405.671 736.22,405.649 736.235,405.628C736.239,405.621 736.245,405.614 736.249,405.607C736.259,405.593 736.269,405.578 736.279,405.563C736.284,405.557 736.29,405.547 736.295,405.541C736.306,405.524 736.318,405.507 736.329,405.49C736.332,405.485 736.334,405.482 736.338,405.478C736.352,405.456 736.366,405.435 736.381,405.413C736.384,405.408 736.388,405.403 736.391,405.398C736.403,405.381 736.414,405.363 736.426,405.345C736.43,405.34 736.432,405.337 736.436,405.331C740.391,399.402 741.918,392.391 742.192,385.588" style="fill:rgb(225,219,202);fill-rule:nonzero;"/>
        </g>
        <g transform="matrix(6.93072,0,0,7.1544,-2759.35,-1896.55)">
            <path d="M700.898,409.384C694.52,412.303 689.604,417.463 688.452,428.033C686.159,449.073 688.35,489.439 663.941,493.743C662.853,493.935 661.713,494.055 660.517,494.099C655.739,494.273 651.353,494.629 647.349,495.335C630.932,498.229 620.864,507.014 615.864,533.415L625.371,535.794L630.143,517.708C631.103,514.069 634.127,511.323 637.822,510.671C637.889,510.659 637.955,510.648 638.022,510.638C660.024,507.232 668.109,506.053 671.875,505.389C673.909,505.03 674.683,504.822 675.71,504.495C675.722,504.491 675.735,504.487 675.747,504.483C675.761,504.478 675.774,504.474 675.788,504.47C675.797,504.467 675.807,504.464 675.816,504.461C675.827,504.457 675.839,504.453 675.85,504.45C685.52,500.994 690.788,493.099 691.467,484.785L699.008,424.493L700.898,409.384Z" style="fill:rgb(225,219,202);fill-rule:nonzero;"/>
        </g>
        <g transform="matrix(6.93072,0,0,7.1544,-2759.35,-1896.55)">
            <path d="M594.02,529.491L590.086,545.21C589.274,548.456 585.984,550.428 582.739,549.616C573.224,547.235 563.58,553.018 561.198,562.533C560.944,563.549 561.562,564.579 562.578,564.834L607.722,576.133C611.377,577.047 615.083,574.826 615.998,571.171L624.519,537.124L594.02,529.491Z" style="fill:rgb(194,182,156);fill-rule:nonzero;"/>
        </g>
        <g transform="matrix(6.93072,0,0,7.1544,-2759.35,-1896.55)">
            <path d="M626.335,536.036L591.964,527.433L589.783,536.147L624.155,544.75L626.335,536.036Z" style="fill:rgb(194,182,156);fill-rule:nonzero;"/>
        </g>
        <g transform="matrix(6.93072,0,0,7.1544,-2759.35,-1896.55)">
            <path d="M670.52,420.273L639.947,414.918L640.554,411.45L671.127,416.806L670.52,420.273Z" style="fill:rgb(164,151,120);fill-rule:nonzero;"/>
        </g>
        <g transform="matrix(6.93072,0,0,7.1544,-2759.35,-1896.55)">
            <path d="M588.994,407.305L581.692,420.657C582.328,421.379 583.076,422.191 583.877,422.977L591.653,408.759L588.994,407.305Z" style="fill:rgb(209,199,179);fill-rule:nonzero;"/>
        </g>
        <g transform="matrix(6.93072,0,0,7.1544,-2759.35,-1896.55)">
            <path d="M581.693,420.656L578.979,425.619L581.638,427.073L583.878,422.976C583.077,422.19 582.328,421.378 581.693,420.656" style="fill:rgb(199,189,164);fill-rule:nonzero;"/>
        </g>
        <g transform="matrix(6.93072,0,0,7.1544,-2759.35,-1896.55)">
            <path d="M593.365,409.52L585.292,424.281C586.118,424.989 586.962,425.611 587.767,426.041L596.102,410.65L593.365,409.52Z" style="fill:rgb(209,199,179);fill-rule:nonzero;"/>
        </g>
        <g transform="matrix(6.93072,0,0,7.1544,-2759.35,-1896.55)">
            <path d="M585.292,424.281L583.349,427.833L586.008,429.288L587.767,426.04C586.962,425.611 586.118,424.989 585.292,424.281" style="fill:rgb(199,189,164);fill-rule:nonzero;"/>
        </g>
        <g transform="matrix(6.93072,0,0,7.1544,-2759.35,-1896.55)">
            <path d="M669.055,426.705L638.482,421.349L639.09,417.882L669.663,423.238L669.055,426.705Z" style="fill:rgb(164,151,120);fill-rule:nonzero;"/>
        </g>
        <g transform="matrix(6.93072,0,0,7.1544,-2759.35,-1896.55)">
            <path d="M735.723,360.39L716.732,366.044L717.052,368.66L736.586,363.295L735.723,360.39Z" style="fill:rgb(209,199,179);fill-rule:nonzero;"/>
        </g>
        <g transform="matrix(6.93072,0,0,7.1544,-2759.35,-1896.55)">
            <path d="M736.811,365.036L717.256,370.985L717.718,374.029L737.725,367.828L736.811,365.036Z" style="fill:rgb(209,199,179);fill-rule:nonzero;"/>
        </g>
        <g transform="matrix(6.93072,0,0,7.1544,-2759.35,-1896.55)">
            <path d="M551.207,508.219L546.406,511.267C546.408,511.267 546.411,511.268 546.414,511.268L551.211,508.219L551.207,508.219ZM519.023,509.146L519.32,509.61L519.025,509.145L519.024,509.145" style="fill:rgb(194,228,221);fill-rule:nonzero;"/>
        </g>
        <g transform="matrix(6.93072,0,0,7.1544,-2759.35,-1896.55)">
            <path d="M595.805,521.247L595.06,524.155L595.821,521.257C595.816,521.253 595.81,521.25 595.805,521.247" style="fill:rgb(194,228,221);fill-rule:nonzero;"/>
        </g>
        <g transform="matrix(6.93072,0,0,7.1544,-2759.35,-1896.55)">
            <path d="M595.822,521.256L595.061,524.155L594.929,524.67C597.764,526.334 600.536,528.191 603.228,530.252L610.812,532.151C606.073,527.844 601.045,524.244 595.822,521.256" style="fill:rgb(186,215,199);fill-rule:nonzero;"/>
        </g>
        <g transform="matrix(6.93072,0,0,7.1544,-2759.35,-1896.55)">
            <path d="M622.517,545.124L621.441,549.422C621.448,549.432 621.455,549.442 621.462,549.452L622.525,545.135C622.522,545.131 622.52,545.128 622.517,545.124" style="fill:rgb(194,228,221);fill-rule:nonzero;"/>
        </g>
        <g transform="matrix(6.93072,0,0,7.1544,-2759.35,-1896.55)">
            <path d="M698.033,470.676C697.817,470.714 697.604,470.792 697.404,470.912C696.634,471.427 696.41,472.499 696.925,473.268C696.982,473.396 699.826,477.816 701.447,485.446C702.527,484.739 703.55,483.905 704.41,482.927C702.565,475.784 699.907,471.641 699.766,471.425C699.374,470.82 698.691,470.56 698.033,470.676" style="fill:rgb(186,215,199);fill-rule:nonzero;"/>
        </g>
    </g>
</svg>
