<?xml version="1.0" encoding="UTF-8" standalone="no"?>
<!DOCTYPE svg PUBLIC "-//W3C//DTD SVG 1.1//EN" "http://www.w3.org/Graphics/SVG/1.1/DTD/svg11.dtd">
<svg width="100%" height="100%" viewBox="0 0 593 705" version="1.1" xmlns="http://www.w3.org/2000/svg" xmlns:xlink="http://www.w3.org/1999/xlink" xml:space="preserve" style="fill-rule:evenodd;clip-rule:evenodd;stroke-miterlimit:10;">
    <g transform="matrix(4.16667,0,0,4.16667,-2756.56,-3729.17)">
        <g opacity="0.770004">
            <path d="M743.573,925.417C749.036,913.147 763.412,907.629 775.682,913.092C787.951,918.555 793.47,932.93 788.007,945.2C782.544,957.47 768.168,962.988 755.898,957.526C743.629,952.063 738.11,937.687 743.573,925.417ZM760.147,949.107C766.196,951.8 772.31,952.821 777.344,952.303C780.255,949.503 783.906,944.824 786.139,937.649C786.799,935.161 785.894,933.903 785.362,933.207C782.359,929.271 777.631,925.575 771.783,922.973C765.857,920.335 759.868,919.302 754.894,919.747C751.952,920.084 750.666,921.962 750.199,922.794C746.939,928.627 745.932,933.903 745.742,937.715C748.662,942.078 753.728,946.249 760.147,949.107Z" style="fill:none;stroke:white;stroke-width:0.25px;"/>
            <path d="M736.76,942.511C732.008,942.818 726.576,943.704 721.87,945.872C712.848,950.008 707.028,953.927 704.196,957.785L710.095,964.151C710.889,963.884 712.073,963.345 713.679,962.242C720.91,957.273 724.366,956.714 729.197,956.386L737.043,955.85L734.997,963.444C731.932,974.811 723.279,986.301 722.911,986.785L722.437,987.41L721.808,987.882C721.724,987.944 717.157,991.431 711.438,998.356L707.046,994.873C713.358,987.212 718.442,983.393 718.442,983.393C718.442,983.393 726.765,972.424 729.579,961.983C725.558,962.258 723.134,962.553 716.857,966.867C714.022,968.814 711.849,969.6 710.312,969.88C708.709,974.567 709.253,979.194 708.274,981.807C707.043,985.096 703.115,982.418 703.981,978.383C704.848,974.346 703.574,972.501 701.641,976.059C695.903,985.026 690.411,983.511 688.502,981.266C686.593,979.02 683.228,975.077 688.341,966.996C691.285,962.34 695.233,959.068 698.056,957.125C701.274,950.603 709.362,945.433 719.532,940.772C724.724,938.379 730.563,937.319 735.916,936.936C736.022,938.823 736.306,940.689 736.76,942.511Z" style="fill:none;stroke:white;stroke-width:0.25px;"/>
            <path d="M769.61,1009.12C770.897,1006.64 774.7,1003.95 777.109,999.621C776.289,998.291 775.419,996.15 774.969,992.74C773.975,985.189 772.572,983.19 770.087,980.018C764.21,989.096 761.628,1002.62 761.628,1002.62C761.628,1002.62 762.16,1008.54 760.865,1017.81L755.27,1017.15C756.465,1008.67 756.048,1003.22 756.04,1003.12L755.969,1002.34L756.117,1001.57C756.231,1000.97 758.977,986.854 765.376,976.97L769.649,970.367L774.503,976.557C777.49,980.367 779.387,983.309 780.533,992.007C780.787,993.939 781.18,995.18 781.512,995.948L790.191,996.073C791.163,991.387 790.179,984.437 787.215,974.956C785.91,970.761 783.373,966.252 779.814,961.728C781.472,960.849 783.051,959.816 784.527,958.634C787.799,962.851 790.887,967.87 792.573,973.292C795.914,983.968 797.482,993.438 794.79,1000.19C795.234,1003.59 795.445,1008.72 793.955,1014.02C791.37,1023.23 786.189,1023.36 783.242,1023.45C780.297,1023.53 775.496,1020.46 778.32,1010.2C779.67,1006.38 777.448,1006.67 775.028,1010.01C772.608,1013.36 767.99,1012.23 769.61,1009.12Z" style="fill:none;stroke:white;stroke-width:0.25px;"/>
            <path d="M792.876,947.368C799.526,932.432 792.785,914.873 777.849,908.223C762.913,901.573 745.354,908.314 738.705,923.249C737.498,925.96 736.737,928.757 736.381,931.56C732.881,931.767 729.589,932.212 726.516,932.891C734.959,915.418 749.576,894.867 756.423,896.555C763.735,898.358 778.783,904.92 778.783,904.92C778.783,904.92 793.731,911.712 799.963,915.94C805.736,919.856 800.423,943.975 793.209,961.886C791.789,959.492 790.124,957.094 788.217,954.699C790.078,952.549 791.661,950.097 792.876,947.368Z" style="fill:none;stroke:white;stroke-width:0.25px;"/>
            <path d="M761.017,966.164C762.041,966.62 762.506,967.831 762.05,968.855L758.458,976.923C758.002,977.947 756.791,978.412 755.767,977.956L739.91,970.896C738.886,970.44 738.421,969.229 738.877,968.205L742.469,960.137C742.925,959.113 744.136,958.648 745.16,959.104L761.017,966.164Z" style="fill:none;stroke:white;stroke-width:0.25px;"/>
            <path d="M692.283,1041.93C689.785,1040.82 687.386,1039.09 685.616,1037.04C680.174,1030.72 687.768,1028.6 691.198,1021.41C692.903,1017.26 694.776,1013.47 696.718,1010L701.171,1013.54C699.494,1016.6 697.873,1019.93 696.387,1023.54L696.329,1023.69L696.261,1023.83C694.752,1026.99 692.737,1029.26 691.118,1031.08C690.593,1031.67 689.924,1032.43 689.534,1032.96C689.62,1033.07 689.729,1033.21 689.869,1033.38C691.058,1034.76 692.77,1036.01 694.565,1036.81C696.823,1037.81 698.319,1037.72 698.672,1037.56C698.712,1037.49 698.791,1037.33 698.857,1037.03C699.856,1032.59 703.124,1025.84 707.845,1018.83L712.242,1022.32C708.054,1028.59 705.171,1034.53 704.331,1038.26C703.065,1043.89 697.463,1044.24 692.283,1041.93Z" style="fill:none;stroke:white;stroke-width:0.25px;"/>
            <path d="M699.467,1005.38C700.903,1003.1 702.349,1001 703.77,999.076L720.14,1012.06C718.437,1013.98 716.828,1015.97 715.329,1017.97L699.467,1005.38Z" style="fill:none;stroke:white;stroke-width:0.25px;"/>
            <path d="M743.728,1062.91C741.017,1062.97 738.125,1062.34 735.628,1061.23C730.447,1058.92 726.961,1054.53 730.295,1049.82C732.496,1046.71 734.967,1040.64 736.824,1033.37L742.429,1034.03C740.377,1042.3 737.522,1049.33 734.873,1053.07C734.698,1053.31 734.624,1053.48 734.602,1053.56C734.721,1053.93 735.653,1055.1 737.91,1056.11C739.705,1056.9 741.779,1057.34 743.604,1057.3C743.818,1057.3 743.995,1057.28 744.136,1057.27C744.27,1056.63 744.383,1055.62 744.471,1054.84C744.742,1052.41 745.081,1049.4 746.422,1046.16L746.482,1046.02L746.548,1045.88C748.335,1042.15 749.789,1038.52 750.977,1035.04L756.675,1035.71C755.35,1039.73 753.694,1043.96 751.607,1048.3C748.56,1055.66 752.065,1062.72 743.728,1062.91Z" style="fill:none;stroke:white;stroke-width:0.25px;"/>
            <path d="M723.817,1008.18L719.4,1004.67C722.5,1001.55 725.813,998.71 729.25,996.387C731.479,994.901 734.776,993.183 737.817,993.432L741.204,994.941C743.424,997.033 744.353,1000.63 744.746,1003.32C745.309,1007.36 745.418,1011.64 745.189,1015.96L739.609,1015.3C739.794,1011.47 739.686,1007.67 739.189,1004.1C739.189,1004.1 738.621,1000.22 737.356,999.024C735.623,998.881 732.361,1001.06 732.361,1001.06C729.396,1003.06 726.524,1005.5 723.817,1008.18Z" style="fill:none;stroke:white;stroke-width:0.25px;"/>
            <path d="M739.178,1020.62L759.983,1023.07C759.526,1025.42 758.954,1027.92 758.239,1030.53L738.004,1028.14C738.487,1025.69 738.889,1023.17 739.178,1020.62Z" style="fill:none;stroke:white;stroke-width:0.25px;"/>
            <path d="M779.711,934.046C780.709,934.955 781.613,935.901 782.379,936.883C780.789,941.888 778.412,945.405 776.349,947.721C775.024,947.733 773.626,947.614 772.195,947.392C774.942,944.202 777.908,939.219 779.711,934.046Z" style="fill:none;stroke:white;stroke-width:0.25px;"/>
            <path d="M754.872,898.229C755.723,898.608 756.72,898.225 757.099,897.374C757.478,896.523 757.095,895.526 756.244,895.147C755.393,894.768 754.396,895.151 754.017,896.002C753.638,896.853 754.021,897.85 754.872,898.229" style="fill:white;fill-rule:nonzero;"/>
            <path d="M785.23,936.454C786.081,936.833 787.078,936.45 787.457,935.599C787.836,934.748 787.453,933.751 786.602,933.372C785.751,932.993 784.754,933.376 784.375,934.227C783.996,935.078 784.379,936.075 785.23,936.454" style="fill:white;fill-rule:nonzero;"/>
            <path d="M752.31,921.432C752.992,921.736 753.792,921.429 754.096,920.747C754.4,920.064 754.093,919.265 753.41,918.961C752.728,918.657 751.928,918.964 751.625,919.646C751.321,920.329 751.628,921.128 752.31,921.432" style="fill:white;fill-rule:nonzero;"/>
            <path d="M790.571,911.684C790.98,911.866 791.46,911.682 791.642,911.273C791.825,910.863 791.641,910.384 791.231,910.201C790.822,910.019 790.342,910.203 790.16,910.613C789.977,911.022 790.162,911.502 790.571,911.684" style="fill:white;fill-rule:nonzero;"/>
            <path d="M735.272,937.752C735.681,937.934 736.161,937.75 736.343,937.341C736.526,936.931 736.342,936.452 735.932,936.269C735.523,936.087 735.043,936.271 734.861,936.681C734.678,937.09 734.863,937.57 735.272,937.752" style="fill:white;fill-rule:nonzero;"/>
            <path d="M761.381,968.894C762.063,969.198 762.863,968.891 763.167,968.209C763.471,967.526 763.164,966.727 762.481,966.423C761.799,966.119 760.999,966.426 760.696,967.108C760.392,967.791 760.699,968.59 761.381,968.894" style="fill:white;fill-rule:nonzero;"/>
            <path d="M755.615,1004.11C756.297,1004.41 757.097,1004.1 757.401,1003.42C757.705,1002.74 757.398,1001.94 756.715,1001.63C756.033,1001.33 755.233,1001.64 754.93,1002.32C754.626,1003 754.933,1003.8 755.615,1004.11" style="fill:white;fill-rule:nonzero;"/>
            <path d="M739.007,1022.47C739.689,1022.78 740.489,1022.47 740.793,1021.79C741.097,1021.1 740.79,1020.31 740.107,1020C739.425,1019.7 738.625,1020 738.322,1020.69C738.018,1021.37 738.325,1022.17 739.007,1022.47" style="fill:white;fill-rule:nonzero;"/>
            <path d="M741.59,1035.61C742.272,1035.91 743.072,1035.6 743.376,1034.92C743.68,1034.24 743.373,1033.44 742.69,1033.13C742.008,1032.83 741.208,1033.14 740.905,1033.82C740.601,1034.5 740.908,1035.3 741.59,1035.61" style="fill:white;fill-rule:nonzero;"/>
            <path d="M711.393,1023.64C712.075,1023.95 712.875,1023.64 713.179,1022.96C713.483,1022.27 713.176,1021.48 712.493,1021.17C711.811,1020.87 711.011,1021.17 710.708,1021.86C710.404,1022.54 710.711,1023.34 711.393,1023.64" style="fill:white;fill-rule:nonzero;"/>
            <path d="M707.66,1020.06C708.138,1020.27 708.697,1020.05 708.91,1019.58C709.123,1019.1 708.908,1018.54 708.43,1018.33C707.952,1018.11 707.393,1018.33 707.18,1018.81C706.967,1019.28 707.182,1019.84 707.66,1020.06" style="fill:white;fill-rule:nonzero;"/>
            <path d="M719.691,1012.98C720.169,1013.2 720.728,1012.98 720.941,1012.5C721.154,1012.03 720.939,1011.47 720.461,1011.25C719.984,1011.04 719.424,1011.26 719.211,1011.73C718.998,1012.21 719.213,1012.77 719.691,1012.98" style="fill:white;fill-rule:nonzero;"/>
            <path d="M714.826,1019.26C715.508,1019.56 716.308,1019.25 716.612,1018.57C716.916,1017.89 716.609,1017.09 715.926,1016.78C715.244,1016.48 714.444,1016.79 714.141,1017.47C713.837,1018.15 714.144,1018.95 714.826,1019.26" style="fill:white;fill-rule:nonzero;"/>
            <path d="M718.075,985.023C718.757,985.327 719.557,985.02 719.861,984.338C720.165,983.655 719.858,982.856 719.175,982.552C718.493,982.248 717.693,982.555 717.39,983.237C717.086,983.92 717.393,984.719 718.075,985.023" style="fill:white;fill-rule:nonzero;"/>
            <path d="M737.391,994.511C737.8,994.693 738.28,994.509 738.462,994.1C738.645,993.69 738.461,993.211 738.051,993.028C737.642,992.846 737.162,993.03 736.98,993.44C736.797,993.849 736.982,994.329 737.391,994.511" style="fill:white;fill-rule:nonzero;"/>
            <path d="M718.996,1005.57C719.405,1005.75 719.885,1005.57 720.067,1005.16C720.25,1004.75 720.066,1004.27 719.656,1004.09C719.247,1003.9 718.767,1004.09 718.585,1004.5C718.402,1004.9 718.587,1005.39 718.996,1005.57" style="fill:white;fill-rule:nonzero;"/>
            <path d="M723.443,1008.88C723.852,1009.06 724.332,1008.88 724.514,1008.47C724.697,1008.06 724.513,1007.58 724.103,1007.4C723.694,1007.22 723.214,1007.4 723.032,1007.81C722.849,1008.22 723.034,1008.7 723.443,1008.88" style="fill:white;fill-rule:nonzero;"/>
            <path d="M737.912,1028.94C738.321,1029.12 738.801,1028.94 738.983,1028.53C739.166,1028.12 738.982,1027.64 738.572,1027.46C738.163,1027.28 737.683,1027.46 737.501,1027.87C737.318,1028.28 737.503,1028.76 737.912,1028.94" style="fill:white;fill-rule:nonzero;"/>
            <path d="M736.456,1034.21C736.865,1034.39 737.345,1034.21 737.527,1033.8C737.71,1033.39 737.526,1032.91 737.116,1032.72C736.707,1032.54 736.227,1032.73 736.045,1033.14C735.862,1033.55 736.047,1034.03 736.456,1034.21" style="fill:white;fill-rule:nonzero;"/>
            <path d="M737.003,999.816C737.412,999.998 737.892,999.814 738.074,999.405C738.257,998.995 738.073,998.516 737.663,998.333C737.254,998.151 736.774,998.335 736.592,998.745C736.409,999.154 736.594,999.634 737.003,999.816" style="fill:white;fill-rule:nonzero;"/>
            <path d="M741.263,996.235C741.672,996.417 742.152,996.233 742.334,995.824C742.517,995.414 742.333,994.935 741.923,994.752C741.514,994.57 741.034,994.754 740.852,995.164C740.669,995.573 740.854,996.053 741.263,996.235" style="fill:white;fill-rule:nonzero;"/>
            <path d="M739.506,1016.03C739.915,1016.21 740.395,1016.03 740.577,1015.62C740.76,1015.21 740.576,1014.73 740.166,1014.55C739.757,1014.37 739.277,1014.55 739.095,1014.96C738.912,1015.37 739.097,1015.85 739.506,1016.03" style="fill:white;fill-rule:nonzero;"/>
            <path d="M734.887,1022.41C735.296,1022.6 735.776,1022.41 735.958,1022C736.141,1021.59 735.957,1021.11 735.547,1020.93C735.138,1020.75 734.658,1020.93 734.476,1021.34C734.293,1021.75 734.478,1022.23 734.887,1022.41" style="fill:white;fill-rule:nonzero;"/>
            <path d="M709.905,1005.37C710.314,1005.55 710.794,1005.37 710.976,1004.96C711.159,1004.55 710.975,1004.07 710.565,1003.89C710.156,1003.7 709.676,1003.89 709.494,1004.3C709.311,1004.71 709.496,1005.19 709.905,1005.37" style="fill:white;fill-rule:nonzero;"/>
            <path d="M734.132,1054.35C734.541,1054.54 735.021,1054.35 735.203,1053.94C735.386,1053.53 735.202,1053.05 734.792,1052.87C734.383,1052.69 733.903,1052.87 733.721,1053.28C733.538,1053.69 733.723,1054.17 734.132,1054.35" style="fill:white;fill-rule:nonzero;"/>
            <path d="M744.041,1057.72C744.45,1057.9 744.93,1057.72 745.112,1057.31C745.295,1056.9 745.111,1056.42 744.701,1056.24C744.292,1056.06 743.812,1056.24 743.63,1056.65C743.447,1057.06 743.632,1057.54 744.041,1057.72" style="fill:white;fill-rule:nonzero;"/>
            <path d="M745.838,1047.37C746.247,1047.55 746.727,1047.36 746.909,1046.95C747.092,1046.54 746.908,1046.07 746.498,1045.88C746.089,1045.7 745.609,1045.88 745.427,1046.29C745.244,1046.7 745.429,1047.18 745.838,1047.37" style="fill:white;fill-rule:nonzero;"/>
            <path d="M728.974,1051.01C729.383,1051.19 729.863,1051.01 730.045,1050.6C730.228,1050.19 730.044,1049.71 729.634,1049.53C729.225,1049.35 728.745,1049.53 728.563,1049.94C728.38,1050.35 728.565,1050.83 728.974,1051.01" style="fill:white;fill-rule:nonzero;"/>
            <path d="M734.492,1061.88C734.901,1062.06 735.381,1061.87 735.563,1061.46C735.746,1061.06 735.562,1060.58 735.152,1060.39C734.743,1060.21 734.263,1060.39 734.081,1060.81C733.898,1061.21 734.083,1061.69 734.492,1061.88" style="fill:white;fill-rule:nonzero;"/>
            <path d="M749.973,1053.71C750.382,1053.89 750.862,1053.71 751.044,1053.3C751.227,1052.89 751.043,1052.41 750.633,1052.22C750.224,1052.04 749.744,1052.23 749.562,1052.64C749.379,1053.05 749.564,1053.53 749.973,1053.71" style="fill:white;fill-rule:nonzero;"/>
            <path d="M698.43,1038.46C698.839,1038.64 699.319,1038.46 699.501,1038.05C699.684,1037.64 699.5,1037.16 699.09,1036.97C698.681,1036.79 698.201,1036.98 698.019,1037.39C697.836,1037.8 698.021,1038.28 698.43,1038.46" style="fill:white;fill-rule:nonzero;"/>
            <path d="M703.979,1037.97C704.388,1038.15 704.868,1037.96 705.05,1037.56C705.233,1037.15 705.049,1036.67 704.639,1036.48C704.23,1036.3 703.75,1036.49 703.568,1036.9C703.385,1037.31 703.57,1037.79 703.979,1037.97" style="fill:white;fill-rule:nonzero;"/>
            <path d="M694.542,1043.2C694.951,1043.38 695.431,1043.2 695.613,1042.79C695.796,1042.38 695.612,1041.9 695.202,1041.72C694.793,1041.54 694.313,1041.72 694.131,1042.13C693.948,1042.54 694.133,1043.02 694.542,1043.2" style="fill:white;fill-rule:nonzero;"/>
            <path d="M700.687,1014.43C701.096,1014.62 701.576,1014.43 701.758,1014.02C701.941,1013.61 701.757,1013.13 701.347,1012.95C700.938,1012.77 700.458,1012.95 700.276,1013.36C700.093,1013.77 700.278,1014.25 700.687,1014.43" style="fill:white;fill-rule:nonzero;"/>
            <path d="M745.116,1016.75C745.525,1016.94 746.005,1016.75 746.187,1016.34C746.37,1015.93 746.186,1015.45 745.776,1015.27C745.367,1015.09 744.887,1015.27 744.705,1015.68C744.522,1016.09 744.707,1016.57 745.116,1016.75" style="fill:white;fill-rule:nonzero;"/>
            <path d="M744.987,992.415C745.396,992.597 745.876,992.413 746.058,992.004C746.241,991.594 746.057,991.115 745.647,990.932C745.238,990.75 744.758,990.934 744.576,991.344C744.393,991.753 744.578,992.233 744.987,992.415" style="fill:white;fill-rule:nonzero;"/>
            <path d="M729.97,1003.2C730.379,1003.38 730.859,1003.2 731.041,1002.79C731.224,1002.38 731.04,1001.9 730.63,1001.72C730.221,1001.53 729.741,1001.72 729.559,1002.13C729.376,1002.54 729.561,1003.02 729.97,1003.2" style="fill:white;fill-rule:nonzero;"/>
            <path d="M711.008,998.902C711.417,999.084 711.897,998.9 712.079,998.491C712.262,998.081 712.078,997.602 711.668,997.419C711.259,997.237 710.779,997.421 710.597,997.831C710.414,998.24 710.599,998.72 711.008,998.902" style="fill:white;fill-rule:nonzero;"/>
            <path d="M706.808,995.699C707.217,995.881 707.697,995.697 707.879,995.288C708.062,994.878 707.878,994.399 707.468,994.216C707.059,994.034 706.579,994.218 706.397,994.628C706.214,995.037 706.399,995.517 706.808,995.699" style="fill:white;fill-rule:nonzero;"/>
            <path d="M722.194,987.745C722.603,987.927 723.083,987.743 723.265,987.334C723.448,986.924 723.264,986.445 722.854,986.262C722.445,986.08 721.965,986.264 721.783,986.674C721.6,987.083 721.785,987.563 722.194,987.745" style="fill:white;fill-rule:nonzero;"/>
            <path d="M736.56,943.507C736.968,943.689 737.449,943.505 737.631,943.096C737.814,942.686 737.63,942.207 737.219,942.024C736.81,941.842 736.33,942.026 736.149,942.436C735.965,942.845 736.151,943.325 736.56,943.507" style="fill:white;fill-rule:nonzero;"/>
            <path d="M763.967,906.556C764.376,906.738 764.856,906.554 765.038,906.145C765.221,905.735 765.037,905.256 764.627,905.073C764.218,904.891 763.738,905.075 763.556,905.485C763.373,905.894 763.558,906.374 763.967,906.556" style="fill:white;fill-rule:nonzero;"/>
            <path d="M779.218,935.188C779.627,935.37 780.107,935.186 780.289,934.777C780.472,934.367 780.288,933.888 779.878,933.705C779.469,933.523 778.989,933.707 778.807,934.117C778.624,934.526 778.809,935.006 779.218,935.188" style="fill:white;fill-rule:nonzero;"/>
            <path d="M745.241,939.97C745.923,940.274 746.723,939.967 747.027,939.285C747.331,938.602 747.024,937.803 746.341,937.499C745.659,937.195 744.859,937.502 744.556,938.184C744.252,938.867 744.559,939.666 745.241,939.97" style="fill:white;fill-rule:nonzero;"/>
            <path d="M787.915,956.008C788.597,956.312 789.397,956.005 789.701,955.323C790.005,954.64 789.698,953.841 789.015,953.537C788.333,953.233 787.533,953.54 787.23,954.222C786.926,954.905 787.233,955.704 787.915,956.008" style="fill:white;fill-rule:nonzero;"/>
            <path d="M777.007,952.928C777.416,953.11 777.896,952.926 778.078,952.517C778.261,952.107 778.077,951.628 777.667,951.445C777.258,951.263 776.778,951.447 776.596,951.857C776.413,952.266 776.598,952.746 777.007,952.928" style="fill:white;fill-rule:nonzero;"/>
            <path d="M756.971,978.8C757.38,978.982 757.86,978.798 758.042,978.389C758.225,977.979 758.041,977.5 757.631,977.317C757.222,977.135 756.742,977.319 756.56,977.729C756.377,978.138 756.562,978.618 756.971,978.8" style="fill:white;fill-rule:nonzero;"/>
            <path d="M743.631,986.925C744.04,987.107 744.52,986.923 744.702,986.514C744.885,986.104 744.701,985.625 744.291,985.442C743.882,985.26 743.402,985.444 743.22,985.854C743.037,986.263 743.222,986.743 743.631,986.925" style="fill:white;fill-rule:nonzero;"/>
            <path d="M756.578,970.038C756.987,970.22 757.467,970.036 757.649,969.627C757.832,969.217 757.648,968.738 757.238,968.555C756.829,968.373 756.349,968.557 756.167,968.967C755.984,969.376 756.169,969.856 756.578,970.038" style="fill:white;fill-rule:nonzero;"/>
            <path d="M784.325,959.592C784.734,959.774 785.214,959.59 785.396,959.181C785.579,958.771 785.395,958.292 784.985,958.109C784.576,957.927 784.096,958.111 783.914,958.521C783.731,958.93 783.916,959.41 784.325,959.592" style="fill:white;fill-rule:nonzero;"/>
            <path d="M779.434,962.596C779.843,962.778 780.323,962.594 780.505,962.185C780.688,961.775 780.504,961.296 780.094,961.113C779.685,960.931 779.205,961.115 779.023,961.525C778.84,961.934 779.025,962.414 779.434,962.596" style="fill:white;fill-rule:nonzero;"/>
            <path d="M738.684,970.658C739.093,970.84 739.573,970.656 739.755,970.247C739.938,969.837 739.754,969.358 739.344,969.175C738.935,968.993 738.455,969.177 738.273,969.587C738.09,969.996 738.275,970.476 738.684,970.658" style="fill:white;fill-rule:nonzero;"/>
            <path d="M728.829,962.865C729.238,963.047 729.718,962.863 729.9,962.454C730.083,962.044 729.899,961.565 729.489,961.382C729.08,961.2 728.6,961.384 728.418,961.794C728.235,962.203 728.42,962.683 728.829,962.865" style="fill:white;fill-rule:nonzero;"/>
            <path d="M743.534,959.764C743.943,959.946 744.423,959.762 744.605,959.353C744.788,958.943 744.604,958.464 744.194,958.281C743.785,958.099 743.305,958.283 743.123,958.693C742.94,959.102 743.125,959.582 743.534,959.764" style="fill:white;fill-rule:nonzero;"/>
            <path d="M736.862,956.794C737.271,956.976 737.751,956.792 737.933,956.383C738.116,955.973 737.932,955.494 737.522,955.311C737.113,955.129 736.633,955.313 736.451,955.723C736.268,956.131 736.453,956.612 736.862,956.794" style="fill:white;fill-rule:nonzero;"/>
            <path d="M775.915,948.593C776.324,948.775 776.804,948.591 776.986,948.182C777.169,947.772 776.985,947.293 776.575,947.11C776.166,946.928 775.686,947.112 775.504,947.522C775.321,947.931 775.506,948.411 775.915,948.593" style="fill:white;fill-rule:nonzero;"/>
            <path d="M782.015,937.688C782.424,937.87 782.904,937.686 783.086,937.277C783.269,936.867 783.085,936.388 782.675,936.205C782.266,936.023 781.786,936.207 781.604,936.617C781.421,937.026 781.606,937.506 782.015,937.688" style="fill:white;fill-rule:nonzero;"/>
            <path d="M771.74,947.622C772.149,947.804 772.629,947.62 772.811,947.211C772.994,946.801 772.81,946.322 772.4,946.139C771.991,945.957 771.511,946.141 771.329,946.551C771.146,946.96 771.331,947.44 771.74,947.622" style="fill:white;fill-rule:nonzero;"/>
        </g>
    </g>
    <g transform="matrix(4.16667,0,0,4.16667,-2756.56,-3729.17)">
        <path d="M769.777,970.319L770.67,969.891L770.466,970.861L771.149,971.578L770.164,971.683L769.693,972.554L769.288,971.65L768.314,971.471L769.049,970.807L768.918,969.826L769.777,970.319Z" style="fill:white;fill-rule:nonzero;"/>
    </g>
    <g transform="matrix(4.16667,0,0,4.16667,-2756.56,-3729.17)">
        <path d="M704.43,957.28L705.323,956.852L705.119,957.822L705.802,958.539L704.817,958.644L704.346,959.515L703.941,958.611L702.967,958.432L703.702,957.768L703.571,956.787L704.43,957.28Z" style="fill:white;fill-rule:nonzero;"/>
    </g>
    <g transform="matrix(4.16667,0,0,4.16667,-2756.56,-3729.17)">
        <path d="M688.475,992.761L690.261,991.906L689.854,993.844L691.219,995.279L689.25,995.49L688.307,997.232L687.498,995.424L685.55,995.066L687.019,993.737L686.758,991.774L688.475,992.761Z" style="fill:white;fill-rule:nonzero;"/>
    </g>
    <g transform="matrix(4.16667,0,0,4.16667,-2756.56,-3729.17)">
        <path d="M736.612,930.728L737.505,930.3L737.3,931.27L737.983,931.987L736.998,932.092L736.528,932.963L736.122,932.059L735.149,931.88L735.884,931.216L735.752,930.235L736.612,930.728Z" style="fill:white;fill-rule:nonzero;"/>
    </g>
    <g transform="matrix(4.16667,0,0,4.16667,-2756.56,-3729.17)">
        <path d="M760.989,1017.06L761.882,1016.63L761.678,1017.6L762.361,1018.32L761.376,1018.42L760.905,1019.29L760.5,1018.39L759.526,1018.21L760.261,1017.54L760.13,1016.56L760.989,1017.06Z" style="fill:white;fill-rule:nonzero;"/>
    </g>
    <g transform="matrix(4.16667,0,0,4.16667,-2756.56,-3729.17)">
        <path d="M704.013,973.615L704.906,973.187L704.702,974.157L705.385,974.874L704.4,974.979L703.929,975.85L703.524,974.946L702.55,974.767L703.285,974.103L703.154,973.122L704.013,973.615Z" style="fill:white;fill-rule:nonzero;"/>
    </g>
    <g transform="matrix(4.16667,0,0,4.16667,-2756.56,-3729.17)">
        <path d="M778.564,1006.6L779.457,1006.17L779.253,1007.14L779.936,1007.86L778.951,1007.97L778.48,1008.84L778.075,1007.93L777.101,1007.75L777.836,1007.09L777.705,1006.11L778.564,1006.6Z" style="fill:white;fill-rule:nonzero;"/>
    </g>
    <g transform="matrix(4.16667,0,0,4.16667,-2756.56,-3729.17)">
        <path d="M777.005,999.111L777.898,998.683L777.694,999.653L778.377,1000.37L777.392,1000.48L776.921,1001.35L776.516,1000.44L775.542,1000.26L776.277,999.599L776.146,998.618L777.005,999.111Z" style="fill:white;fill-rule:nonzero;"/>
    </g>
    <g transform="matrix(4.16667,0,0,4.16667,-2756.56,-3729.17)">
        <path d="M756.171,1035.49L757.064,1035.06L756.86,1036.03L757.543,1036.74L756.558,1036.85L756.087,1037.72L755.682,1036.82L754.708,1036.64L755.443,1035.97L755.312,1034.99L756.171,1035.49Z" style="fill:white;fill-rule:nonzero;"/>
    </g>
    <g transform="matrix(4.16667,0,0,4.16667,-2756.56,-3729.17)">
        <path d="M719.32,1019.93L720.213,1019.5L720.009,1020.47L720.692,1021.18L719.707,1021.29L719.236,1022.16L718.831,1021.26L717.857,1021.08L718.592,1020.41L718.461,1019.43L719.32,1019.93Z" style="fill:white;fill-rule:nonzero;"/>
    </g>
    <g transform="matrix(4.16667,0,0,4.16667,-2756.56,-3729.17)">
        <path d="M781.306,996.792C781.988,997.096 782.788,996.789 783.092,996.107C783.396,995.424 783.089,994.625 782.406,994.321C781.724,994.017 780.924,994.324 780.621,995.006C780.317,995.689 780.624,996.488 781.306,996.792" style="fill:white;fill-rule:nonzero;"/>
    </g>
    <g transform="matrix(4.16667,0,0,4.16667,-2756.56,-3729.17)">
        <path d="M769.181,1012.88C769.863,1013.19 770.663,1012.88 770.967,1012.2C771.271,1011.52 770.964,1010.72 770.281,1010.41C769.599,1010.11 768.799,1010.42 768.496,1011.1C768.192,1011.78 768.499,1012.58 769.181,1012.88" style="fill:white;fill-rule:nonzero;"/>
    </g>
    <g transform="matrix(4.16667,0,0,4.16667,-2756.56,-3729.17)">
        <path d="M782.723,1024.29C783.405,1024.59 784.205,1024.29 784.509,1023.6C784.813,1022.92 784.506,1022.12 783.823,1021.82C783.141,1021.51 782.341,1021.82 782.038,1022.5C781.734,1023.19 782.041,1023.98 782.723,1024.29" style="fill:white;fill-rule:nonzero;"/>
    </g>
    <g transform="matrix(4.16667,0,0,4.16667,-2756.56,-3729.17)">
        <path d="M758.345,1024.75C759.027,1025.05 759.827,1024.75 760.131,1024.06C760.435,1023.38 760.128,1022.58 759.445,1022.28C758.763,1021.97 757.963,1022.28 757.66,1022.96C757.356,1023.65 757.663,1024.44 758.345,1024.75" style="fill:white;fill-rule:nonzero;"/>
    </g>
    <g transform="matrix(4.16667,0,0,4.16667,-2756.56,-3729.17)">
        <path d="M703.353,999.853C704.035,1000.16 704.835,999.85 705.139,999.168C705.443,998.485 705.136,997.686 704.453,997.382C703.771,997.078 702.971,997.385 702.668,998.067C702.364,998.75 702.671,999.549 703.353,999.853" style="fill:white;fill-rule:nonzero;"/>
    </g>
    <g transform="matrix(4.16667,0,0,4.16667,-2756.56,-3729.17)">
        <path d="M696.266,1011.53C696.949,1011.84 697.748,1011.53 698.052,1010.85C698.357,1010.16 698.05,1009.37 697.367,1009.06C696.685,1008.76 695.885,1009.06 695.582,1009.75C695.277,1010.43 695.584,1011.23 696.266,1011.53" style="fill:white;fill-rule:nonzero;"/>
    </g>
    <g transform="matrix(4.16667,0,0,4.16667,-2756.56,-3729.17)">
        <path d="M690.146,1023.62C690.531,1023.79 690.981,1023.62 691.153,1023.23C691.324,1022.85 691.151,1022.4 690.766,1022.23C690.382,1022.06 689.931,1022.23 689.76,1022.61C689.588,1023 689.761,1023.45 690.146,1023.62" style="fill:white;fill-rule:nonzero;"/>
    </g>
    <g transform="matrix(4.16667,0,0,4.16667,-2756.56,-3729.17)">
        <path d="M697.859,957.483C698.244,957.654 698.694,957.481 698.866,957.097C699.037,956.712 698.864,956.261 698.479,956.09C698.095,955.918 697.644,956.091 697.473,956.476C697.301,956.861 697.474,957.312 697.859,957.483" style="fill:white;fill-rule:nonzero;"/>
    </g>
    <g transform="matrix(4.16667,0,0,4.16667,-2756.56,-3729.17)">
        <path d="M710.265,970.522C710.65,970.693 711.1,970.52 711.272,970.136C711.443,969.751 711.27,969.3 710.885,969.129C710.501,968.957 710.05,969.13 709.879,969.515C709.707,969.9 709.88,970.351 710.265,970.522" style="fill:white;fill-rule:nonzero;"/>
    </g>
    <g transform="matrix(4.16667,0,0,4.16667,-2756.56,-3729.17)">
        <path d="M709.502,964.765C709.887,964.936 710.337,964.763 710.509,964.379C710.68,963.994 710.507,963.543 710.122,963.372C709.738,963.2 709.287,963.373 709.116,963.758C708.944,964.143 709.117,964.594 709.502,964.765" style="fill:white;fill-rule:nonzero;"/>
    </g>
    <g transform="matrix(4.16667,0,0,4.16667,-2756.56,-3729.17)">
        <path d="M688.621,982.515C689.006,982.686 689.456,982.513 689.627,982.129C689.799,981.744 689.626,981.293 689.241,981.122C688.857,980.95 688.406,981.123 688.235,981.508C688.063,981.893 688.236,982.344 688.621,982.515" style="fill:white;fill-rule:nonzero;"/>
    </g>
    <g transform="matrix(4.16667,0,0,4.16667,-2756.56,-3729.17)">
        <path d="M722.704,958.084C723.089,958.255 723.539,958.082 723.711,957.698C723.882,957.313 723.709,956.862 723.324,956.691C722.94,956.519 722.489,956.692 722.318,957.077C722.146,957.462 722.319,957.913 722.704,958.084" style="fill:white;fill-rule:nonzero;"/>
    </g>
    <g transform="matrix(4.16667,0,0,4.16667,-2756.56,-3729.17)">
        <path d="M685.299,973.818C685.684,973.989 686.134,973.816 686.306,973.432C686.477,973.047 686.304,972.596 685.919,972.425C685.535,972.253 685.084,972.426 684.913,972.811C684.741,973.196 684.914,973.647 685.299,973.818" style="fill:white;fill-rule:nonzero;"/>
    </g>
    <g transform="matrix(4.16667,0,0,4.16667,-2756.56,-3729.17)">
        <path d="M725.964,933.584C726.349,933.755 726.799,933.582 726.971,933.198C727.142,932.813 726.969,932.362 726.584,932.191C726.2,932.019 725.749,932.192 725.578,932.577C725.406,932.962 725.579,933.413 725.964,933.584" style="fill:white;fill-rule:nonzero;"/>
    </g>
    <g transform="matrix(4.16667,0,0,4.16667,-2756.56,-3729.17)">
        <path d="M720.861,946.907C721.246,947.078 721.696,946.905 721.868,946.521C722.039,946.136 721.866,945.685 721.481,945.514C721.097,945.342 720.646,945.515 720.475,945.9C720.303,946.285 720.476,946.736 720.861,946.907" style="fill:white;fill-rule:nonzero;"/>
    </g>
    <g transform="matrix(4.16667,0,0,4.16667,-2756.56,-3729.17)">
        <path d="M757.822,1030.99C758.207,1031.16 758.657,1030.99 758.829,1030.6C759,1030.22 758.827,1029.77 758.442,1029.6C758.058,1029.42 757.607,1029.6 757.436,1029.98C757.264,1030.37 757.437,1030.82 757.822,1030.99" style="fill:white;fill-rule:nonzero;"/>
    </g>
    <g transform="matrix(4.16667,0,0,4.16667,-2756.56,-3729.17)">
        <path d="M755.052,1017.86C755.437,1018.03 755.887,1017.86 756.059,1017.47C756.23,1017.09 756.057,1016.64 755.672,1016.47C755.288,1016.3 754.837,1016.47 754.666,1016.85C754.494,1017.24 754.667,1017.69 755.052,1017.86" style="fill:white;fill-rule:nonzero;"/>
    </g>
    <g transform="matrix(4.16667,0,0,4.16667,-2756.56,-3729.17)">
        <path d="M761.397,1003.32C761.782,1003.49 762.232,1003.31 762.404,1002.93C762.575,1002.55 762.402,1002.09 762.017,1001.92C761.633,1001.75 761.182,1001.92 761.011,1002.31C760.839,1002.69 761.012,1003.14 761.397,1003.32" style="fill:white;fill-rule:nonzero;"/>
    </g>
    <g transform="matrix(4.16667,0,0,4.16667,-2756.56,-3729.17)">
        <path d="M682.944,1033.64C683.626,1033.95 684.426,1033.64 684.73,1032.96C685.034,1032.27 684.727,1031.47 684.044,1031.17C683.362,1030.87 682.562,1031.17 682.259,1031.86C681.955,1032.54 682.262,1033.34 682.944,1033.64" style="fill:white;fill-rule:nonzero;"/>
    </g>
</svg>
