<?xml version="1.0" encoding="UTF-8" standalone="no"?>
<!DOCTYPE svg PUBLIC "-//W3C//DTD SVG 1.1//EN" "http://www.w3.org/Graphics/SVG/1.1/DTD/svg11.dtd">
<svg width="100%" height="100%" viewBox="0 0 101 174" version="1.1" xmlns="http://www.w3.org/2000/svg" xmlns:xlink="http://www.w3.org/1999/xlink" xml:space="preserve" style="fill-rule:evenodd;clip-rule:evenodd;stroke-linejoin:round;stroke-miterlimit:1.41421;">
    <g transform="matrix(4.16667,0,0,4.16667,-1082.29,-791.852)">
        <path d="M271.368,190.05C274.917,190.048 278.012,190.026 280.945,191.272C283.1,192.187 283.647,193.173 283.835,195.515C284.175,199.741 282.843,203.173 279.611,205.947C278.369,207.012 277.364,208.352 276.225,209.543C275.481,210.32 275.46,211.049 276.201,211.836C277.72,213.447 279.163,215.134 280.743,216.681C283.692,219.567 284.173,223.138 283.712,226.961C283.505,228.681 282.231,229.626 280.724,230.209C276.882,231.694 272.871,231.754 268.841,231.476C266.887,231.341 264.946,231.063 263.1,230.338C260.753,229.416 260.018,228.139 259.803,225.673C259.451,221.64 260.872,218.446 263.786,215.752C264.993,214.637 265.995,213.303 267.169,212.15C268.188,211.148 268.237,210.314 267.193,209.283C265.617,207.728 264.207,206.003 262.601,204.482C259.415,201.465 259.575,197.653 260.035,193.828C260.207,192.406 261.54,191.689 262.832,191.185C265.733,190.054 268.774,190.022 271.368,190.05M271.863,229.451C274.605,229.476 277.333,229.407 279.925,228.343C280.757,228.002 281.589,227.604 281.705,226.596C282.023,223.836 282.089,221.141 279.916,218.924C278.257,217.232 276.64,215.492 275.115,213.68C272.956,211.117 272.977,210.338 275.142,207.825C276.823,205.874 278.561,203.972 280.31,202.081C281.514,200.779 281.911,199.248 281.846,197.528C281.812,196.643 281.543,196.324 280.603,196.653C274.753,198.704 268.888,198.696 263.036,196.653C262.267,196.384 261.837,196.491 261.803,197.382C261.744,198.96 261.879,200.474 263.014,201.725C264.953,203.862 266.888,206.002 268.804,208.158C270.51,210.078 270.562,211.254 268.919,213.169C267.611,214.692 266.278,216.209 264.819,217.584C262.518,219.753 261.493,222.297 261.754,225.473C261.876,226.956 262.403,227.858 263.792,228.386C266.407,229.382 269.122,229.483 271.863,229.451M271.742,196.013C274.454,196.168 277.046,195.827 279.554,194.953C280.099,194.763 280.931,194.662 280.896,193.901C280.865,193.196 280.105,192.994 279.516,192.856C274.369,191.648 269.213,191.645 264.07,192.871C263.495,193.008 262.714,193.198 262.698,193.918C262.681,194.653 263.459,194.811 264.035,194.986C266.565,195.75 269.143,196.201 271.742,196.013" style="fill:rgb(203,42,0);fill-rule:nonzero;"/>
    </g>
    <g transform="matrix(4.16667,0,0,4.16667,-1082.29,-791.852)">
        <path d="M271.859,228.534C269.112,228.286 266.43,228.192 263.893,227.225C262.293,226.614 262.204,226.099 263.373,224.81C264.479,223.591 265.986,223.02 267.373,222.248C268.79,221.458 270.425,220.965 271.294,219.399C271.549,218.941 271.993,218.912 272.282,219.363C273.475,221.223 275.542,221.786 277.31,222.781C278.389,223.388 279.486,223.957 280.323,224.892C281.32,226.006 281.189,226.628 279.8,227.189C277.228,228.227 274.485,228.272 271.859,228.534" style="fill:rgb(203,42,0);fill-rule:nonzero;"/>
    </g>
    <g transform="matrix(4.16667,0,0,4.16667,-1082.29,-791.852)">
        <path d="M271.862,212.346C271.307,212.144 271.305,211.623 271.272,211.197C271.122,209.268 270.062,207.869 268.775,206.54C267.415,205.134 266.138,203.646 264.862,202.162C264.587,201.842 264.104,201.411 264.469,200.959C264.786,200.566 265.239,200.957 265.582,201.134C269.733,203.281 273.871,203.35 278.018,201.12C278.384,200.923 278.866,200.454 279.232,200.996C279.49,201.379 279.075,201.763 278.808,202.068C277.454,203.62 276.148,205.222 274.708,206.691C273.433,207.993 272.527,209.412 272.344,211.253C272.305,211.646 272.272,212.085 271.862,212.346" style="fill:rgb(203,42,0);fill-rule:nonzero;"/>
    </g>
</svg>
