<?xml version="1.0" encoding="UTF-8" standalone="no"?>
<!DOCTYPE svg PUBLIC "-//W3C//DTD SVG 1.1//EN" "http://www.w3.org/Graphics/SVG/1.1/DTD/svg11.dtd">
<svg width="100%" height="100%" viewBox="0 0 197 276" version="1.1" xmlns="http://www.w3.org/2000/svg" xmlns:xlink="http://www.w3.org/1999/xlink" xml:space="preserve" style="fill-rule:evenodd;clip-rule:evenodd;stroke-linejoin:round;stroke-miterlimit:1.41421;">
    <g transform="matrix(4.16667,0,0,4.16667,-1096.46,-1843.83)">
        <path d="M273.811,444.672C261.774,450.852 259.524,467.455 269.14,475.919C275.857,480.76 281.539,486.955 286.424,494.196C288.106,496.69 291.493,497.517 294.34,496.055L303.611,491.294C306.448,489.837 307.775,486.629 306.772,483.801C304.025,476.064 302.412,467.823 301.926,459.083C300.65,446.334 285.844,438.493 273.811,444.672" style="fill:rgb(249,242,186);fill-rule:nonzero;"/>
    </g>
    <g transform="matrix(4.16667,0,0,4.16667,-1096.46,-1843.83)">
        <path d="M296.54,495.311L295.297,495.949L278.915,464.045L280.158,463.407L296.54,495.311Z" style="fill:rgb(238,158,95);fill-rule:nonzero;"/>
    </g>
    <g transform="matrix(4.16667,0,0,4.16667,-1096.46,-1843.83)">
        <path d="M302.963,492.013L301.72,492.651L285.337,460.747L286.58,460.109L302.963,492.013Z" style="fill:rgb(238,158,95);fill-rule:nonzero;"/>
    </g>
    <g transform="matrix(4.16667,0,0,4.16667,-1096.46,-1843.83)">
        <path d="M287.418,459.445C286.983,459.669 286.652,460.017 286.416,460.427C285.946,460.379 285.47,460.445 285.035,460.669C284.599,460.892 284.269,461.24 284.033,461.65C283.563,461.603 283.088,461.668 282.652,461.892C282.217,462.116 281.887,462.463 281.651,462.873C281.181,462.826 280.705,462.892 280.27,463.115C279.835,463.339 279.504,463.687 279.269,464.097C278.799,464.049 278.323,464.115 277.888,464.339C276.557,465.022 276.103,466.798 276.874,468.299C277.645,469.801 279.354,470.467 280.684,469.784C281.119,469.56 281.45,469.212 281.685,468.803C282.156,468.85 282.631,468.784 283.066,468.561C283.501,468.337 283.832,467.989 284.068,467.58C284.538,467.627 285.013,467.561 285.448,467.337C285.884,467.114 286.214,466.766 286.45,466.356C286.92,466.404 287.395,466.338 287.83,466.114C288.266,465.891 288.597,465.542 288.832,465.132C289.303,465.18 289.779,465.114 290.214,464.89C291.545,464.207 291.999,462.43 291.228,460.929C290.457,459.428 288.749,458.762 287.418,459.445M288.079,463.665C287.811,463.469 287.565,463.227 287.395,462.897C287.225,462.567 287.173,462.225 287.17,461.894C287.437,462.089 287.684,462.331 287.853,462.662C288.023,462.992 288.076,463.333 288.079,463.665M286.057,461.539C286.002,462.035 286.071,462.558 286.266,463.066C285.967,462.611 285.582,462.251 285.147,462.005L285.543,461.66L286.057,461.539ZM285.696,464.889C285.429,464.694 285.181,464.452 285.012,464.121C284.842,463.79 284.789,463.448 284.786,463.117C285.054,463.312 285.301,463.554 285.471,463.885C285.641,464.216 285.694,464.558 285.696,464.889M283.673,462.762C283.619,463.257 283.686,463.777 283.88,464.283C283.582,463.83 283.198,463.473 282.764,463.229L283.161,462.883L283.673,462.762ZM283.314,466.112C283.046,465.917 282.799,465.675 282.629,465.344C282.46,465.013 282.407,464.671 282.404,464.34C282.672,464.535 282.919,464.777 283.089,465.108C283.259,465.439 283.312,465.781 283.314,466.112M281.291,463.985C281.237,464.48 281.304,465 281.498,465.506C281.199,465.054 280.816,464.696 280.382,464.452L280.779,464.106L281.291,463.985ZM280.932,467.336C280.664,467.14 280.417,466.898 280.247,466.567C280.077,466.237 280.024,465.895 280.022,465.563C280.29,465.758 280.537,466 280.707,466.331C280.876,466.662 280.93,467.004 280.932,467.336M277.865,467.79C277.375,466.836 277.614,465.732 278.397,465.329L278.909,465.208C278.842,465.817 278.944,466.468 279.256,467.076C279.569,467.685 280.039,468.147 280.572,468.447L280.175,468.793C279.392,469.195 278.355,468.746 277.865,467.79M282.045,467.691C282.1,467.196 282.032,466.676 281.838,466.169C282.137,466.622 282.52,466.98 282.954,467.224L282.557,467.57L282.045,467.691ZM284.427,466.468C284.482,465.973 284.414,465.452 284.221,464.946C284.519,465.399 284.903,465.757 285.337,466.001L284.939,466.346L284.427,466.468ZM286.81,465.244C286.864,464.747 286.796,464.224 286.6,463.715C286.899,464.171 287.284,464.532 287.72,464.776L287.322,465.123L286.81,465.244ZM289.705,463.899L289.192,464.021C289.259,463.413 289.157,462.761 288.844,462.153C288.532,461.544 288.062,461.082 287.529,460.782L287.927,460.436C288.71,460.034 289.747,460.483 290.237,461.438C290.727,462.393 290.489,463.497 289.705,463.899" style="fill:rgb(238,158,95);fill-rule:nonzero;"/>
    </g>
    <g transform="matrix(4.16667,0,0,4.16667,-1096.46,-1843.83)">
        <path d="M291.437,477.256L290.021,477.983C289.382,478.311 289.13,479.095 289.458,479.733L296.949,494.322L300.678,492.407L293.188,477.819C292.859,477.18 292.076,476.928 291.437,477.256" style="fill:rgb(248,149,33);fill-rule:nonzero;"/>
    </g>
    <g transform="matrix(4.16667,0,0,4.16667,-1096.46,-1843.83)">
        <path d="M305.534,489.882L305.925,490.007L309.823,497.599C310.956,499.806 310.353,502.437 308.523,503.978L308.698,504.188C309.166,505.1 308.806,506.22 307.894,506.688L304.352,508.507C303.441,508.975 302.321,508.615 301.852,507.703L301.783,507.438C300.173,507.848 298.495,507.473 297.228,506.471C296.84,506.169 296.504,505.808 296.2,505.379L295.842,504.778L291.947,497.192L292.075,496.793L305.534,489.882Z" style="fill:rgb(90,74,67);fill-rule:nonzero;"/>
    </g>
    <g transform="matrix(4.16667,0,0,4.16667,-1096.46,-1843.83)">
        <path d="M306.525,491.176L293.684,500.575L294.376,501.923L307.217,492.524L306.545,491.216L306.525,491.176Z" style="fill:rgb(69,56,51);fill-rule:nonzero;"/>
    </g>
    <g transform="matrix(4.16667,0,0,4.16667,-1096.46,-1843.83)">
        <path d="M308.459,494.942L307.767,493.595L308.459,494.942Z" style="fill:rgb(199,194,194);fill-rule:nonzero;"/>
    </g>
    <g transform="matrix(4.16667,0,0,4.16667,-1096.46,-1843.83)">
        <path d="M307.767,493.595L294.926,502.994L295.611,504.329L308.459,494.943L307.767,493.595Z" style="fill:rgb(69,56,51);fill-rule:nonzero;"/>
    </g>
    <g transform="matrix(4.16667,0,0,4.16667,-1096.46,-1843.83)">
        <path d="M309.008,496.013L296.2,505.379C296.504,505.807 296.839,506.169 297.228,506.47L309.693,497.348L309.008,496.013Z" style="fill:rgb(69,56,51);fill-rule:nonzero;"/>
    </g>
    <g transform="matrix(4.16667,0,0,4.16667,-1096.46,-1843.83)">
        <path d="M293.527,501.78C293.208,501.944 292.808,501.857 292.589,501.558C292.347,501.226 292.419,500.762 292.751,500.519L306.716,490.298C307.035,490.059 307.511,490.126 307.754,490.458C307.996,490.79 307.924,491.254 307.592,491.497L293.627,501.718L293.527,501.78Z" style="fill:rgb(176,130,71);fill-rule:nonzero;"/>
    </g>
    <g transform="matrix(4.16667,0,0,4.16667,-1096.46,-1843.83)">
        <path d="M294.766,504.194C294.447,504.357 294.047,504.27 293.828,503.972C293.586,503.64 293.658,503.175 293.99,502.933L307.955,492.713C308.272,492.47 308.751,492.541 308.993,492.873C309.235,493.204 309.164,493.669 308.831,493.911L294.866,504.132L294.766,504.194Z" style="fill:rgb(176,130,71);fill-rule:nonzero;"/>
    </g>
    <g transform="matrix(4.16667,0,0,4.16667,-1096.46,-1843.83)">
        <path d="M296.005,506.606C295.686,506.77 295.286,506.682 295.068,506.384C294.825,506.052 294.897,505.588 295.229,505.345L309.194,495.125C309.513,494.885 309.99,494.954 310.232,495.285C310.474,495.617 310.403,496.081 310.07,496.324L296.105,506.544L296.005,506.606Z" style="fill:rgb(176,130,71);fill-rule:nonzero;"/>
    </g>
</svg>
