<?xml version="1.0" encoding="UTF-8" standalone="no"?>
<!DOCTYPE svg PUBLIC "-//W3C//DTD SVG 1.1//EN" "http://www.w3.org/Graphics/SVG/1.1/DTD/svg11.dtd">
<svg width="100%" height="100%" viewBox="0 0 378 399" version="1.1" xmlns="http://www.w3.org/2000/svg" xmlns:xlink="http://www.w3.org/1999/xlink" xml:space="preserve" style="fill-rule:evenodd;clip-rule:evenodd;stroke-linejoin:round;stroke-miterlimit:1.41421;">
    <g transform="matrix(4.16667,0,0,4.16667,-148.194,-3687.94)">
        <path d="M115.067,966.641L126.257,946.454L93.78,928.452L82.59,948.639L115.067,966.641Z" style="fill:rgb(225,240,251);fill-rule:nonzero;"/>
    </g>
    <g transform="matrix(4.16667,0,0,4.16667,-148.194,-3687.94)">
        <path d="M88.61,950.255L98.34,932.701L93.74,930.151L84.01,947.705L88.61,950.255Z" style="fill:rgb(115,115,116);fill-rule:nonzero;"/>
    </g>
    <g transform="matrix(4.16667,0,0,4.16667,-148.194,-3687.94)">
        <path d="M93.855,953.162L103.585,935.608L98.985,933.058L89.255,950.612L93.855,953.162Z" style="fill:rgb(115,115,116);fill-rule:nonzero;"/>
    </g>
    <g transform="matrix(4.16667,0,0,4.16667,-148.194,-3687.94)">
        <path d="M99.099,956.069L108.829,938.515L104.229,935.965L94.499,953.519L99.099,956.069Z" style="fill:rgb(115,115,116);fill-rule:nonzero;"/>
    </g>
    <g transform="matrix(4.16667,0,0,4.16667,-148.194,-3687.94)">
        <path d="M104.343,958.976L114.073,941.422L109.473,938.872L99.743,956.426L104.343,958.976Z" style="fill:rgb(115,115,116);fill-rule:nonzero;"/>
    </g>
    <g transform="matrix(4.16667,0,0,4.16667,-148.194,-3687.94)">
        <path d="M109.588,961.883L119.318,944.329L114.718,941.779L104.988,959.333L109.588,961.883Z" style="fill:rgb(115,115,116);fill-rule:nonzero;"/>
    </g>
    <g transform="matrix(4.16667,0,0,4.16667,-148.194,-3687.94)">
        <path d="M114.832,964.79L124.562,947.236L119.962,944.686L110.232,962.24L114.832,964.79Z" style="fill:rgb(115,115,116);fill-rule:nonzero;"/>
    </g>
    <g transform="matrix(4.16667,0,0,4.16667,-148.194,-3687.94)">
        <path d="M68.044,940.576L79.234,920.389L46.757,902.387L35.567,922.574L68.044,940.576Z" style="fill:rgb(225,240,251);fill-rule:nonzero;"/>
    </g>
    <g transform="matrix(4.16667,0,0,4.16667,-148.194,-3687.94)">
        <path d="M41.587,924.189L51.317,906.636L46.717,904.085L36.987,921.64L41.587,924.189Z" style="fill:rgb(115,115,116);fill-rule:nonzero;"/>
    </g>
    <g transform="matrix(4.16667,0,0,4.16667,-148.194,-3687.94)">
        <path d="M46.831,927.096L56.561,909.542L51.961,906.992L42.231,924.546L46.831,927.096Z" style="fill:rgb(115,115,116);fill-rule:nonzero;"/>
    </g>
    <g transform="matrix(4.16667,0,0,4.16667,-148.194,-3687.94)">
        <path d="M52.076,930.003L61.806,912.449L57.206,909.899L47.476,927.453L52.076,930.003Z" style="fill:rgb(115,115,116);fill-rule:nonzero;"/>
    </g>
    <g transform="matrix(4.16667,0,0,4.16667,-148.194,-3687.94)">
        <path d="M57.32,932.91L67.05,915.356L62.45,912.806L52.72,930.36L57.32,932.91Z" style="fill:rgb(115,115,116);fill-rule:nonzero;"/>
    </g>
    <g transform="matrix(4.16667,0,0,4.16667,-148.194,-3687.94)">
        <path d="M62.564,935.817L72.294,918.263L67.694,915.713L57.964,933.267L62.564,935.817Z" style="fill:rgb(115,115,116);fill-rule:nonzero;"/>
    </g>
    <g transform="matrix(4.16667,0,0,4.16667,-148.194,-3687.94)">
        <path d="M67.809,938.724L77.539,921.17L72.938,918.62L63.208,936.174L67.809,938.724Z" style="fill:rgb(115,115,116);fill-rule:nonzero;"/>
    </g>
    <g transform="matrix(4.16667,0,0,4.16667,-148.194,-3687.94)">
        <path d="M80.615,946.955L91.817,926.746L81.858,921.225L70.656,941.434C69.477,943.56 70.252,946.264 72.378,947.443L74.607,948.678C76.733,949.856 79.437,949.081 80.615,946.955" style="fill:rgb(126,179,223);fill-rule:nonzero;"/>
    </g>
    <g transform="matrix(4.16667,0,0,4.16667,-148.194,-3687.94)">
        <path d="M87.692,900.969L82.765,909.858C80.368,914.182 81.945,919.68 86.268,922.077L88.758,923.457C93.081,925.853 98.58,924.277 100.976,919.953L105.904,911.064C106.158,910.605 105.991,910.021 105.532,909.767L88.989,900.597C88.53,900.343 87.946,900.51 87.692,900.969" style="fill:rgb(225,240,251);fill-rule:nonzero;"/>
    </g>
    <g transform="matrix(4.16667,0,0,4.16667,-148.194,-3687.94)">
        <path d="M74.697,949.952L71.082,947.948L64.649,959.555L68.263,961.559L74.697,949.952Z" style="fill:rgb(179,209,235);fill-rule:nonzero;"/>
    </g>
    <g transform="matrix(4.16667,0,0,4.16667,-148.194,-3687.94)">
        <path d="M64.066,950.263L62.846,952.464L75.139,959.278L76.359,957.077L64.066,950.263Z" style="fill:rgb(179,209,235);fill-rule:nonzero;"/>
    </g>
    <g transform="matrix(4.16667,0,0,4.16667,-148.194,-3687.94)">
        <path d="M88.523,939.865L89.483,938.132L73.898,929.494L72.938,931.226L88.523,939.865Z" style="fill:rgb(179,209,235);fill-rule:nonzero;"/>
    </g>
    <g transform="matrix(4.16667,0,0,4.16667,-148.194,-3687.94)">
        <path d="M52.796,953.441L54.2,954.219C57.034,955.79 60.637,954.757 62.208,951.923L63.112,950.291C64.683,947.458 63.65,943.854 60.816,942.284L59.412,941.505L52.796,953.441Z" style="fill:rgb(126,179,223);fill-rule:nonzero;"/>
    </g>
    <g transform="matrix(4.16667,0,0,4.16667,-148.194,-3687.94)">
        <path d="M86.102,956.3L84.166,955.227C81.667,953.842 78.489,954.753 77.104,957.252L75.602,959.962C74.217,962.46 75.128,965.638 77.627,967.023L79.563,968.097L86.102,956.3Z" style="fill:rgb(126,179,223);fill-rule:nonzero;"/>
    </g>
    <g transform="matrix(4.16667,0,0,4.16667,-148.194,-3687.94)">
        <path d="M41.104,959.412C48.668,955.422 58.031,955.205 66.068,959.661C74.106,964.116 78.883,972.171 79.508,980.7L41.104,959.412Z" style="fill:rgb(225,240,251);fill-rule:nonzero;"/>
    </g>
    <g transform="matrix(4.16667,0,0,4.16667,-148.194,-3687.94)">
        <path d="M82.59,948.639L115.067,966.641L126.257,946.454L93.78,928.452L88.665,937.679L89.355,938.062L93.74,930.151L98.34,932.701L88.61,950.255L84.01,947.705L88.395,939.794L87.705,939.412L82.59,948.639ZM119.962,944.686L124.562,947.236L114.832,964.79L110.231,962.24L119.962,944.686ZM114.717,941.779L119.318,944.329L109.587,961.883L104.987,959.333L114.717,941.779ZM109.473,938.872L114.073,941.422L104.343,958.976L99.743,956.426L109.473,938.872ZM104.229,935.965L108.829,938.515L99.099,956.069L94.498,953.519L104.229,935.965ZM98.984,933.058L103.585,935.608L93.854,953.162L89.254,950.612L98.984,933.058Z" style="fill:rgb(204,219,233);fill-rule:nonzero;"/>
    </g>
    <g transform="matrix(4.16667,0,0,4.16667,-148.194,-3687.94)">
        <path d="M89.484,938.133L89.356,938.062L93.741,930.151L98.341,932.701L88.611,950.255L84.01,947.705L88.395,939.794L88.524,939.865L89.484,938.133Z" style="fill:rgb(95,95,95);fill-rule:nonzero;"/>
    </g>
    <g transform="matrix(4.16667,0,0,4.16667,-148.194,-3687.94)">
        <path d="M93.855,953.162L89.255,950.612L98.985,933.058L103.585,935.608L93.855,953.162Z" style="fill:rgb(95,95,95);fill-rule:nonzero;"/>
    </g>
    <g transform="matrix(4.16667,0,0,4.16667,-148.194,-3687.94)">
        <path d="M99.099,956.069L94.499,953.519L104.229,935.965L108.829,938.515L99.099,956.069Z" style="fill:rgb(95,95,95);fill-rule:nonzero;"/>
    </g>
    <g transform="matrix(4.16667,0,0,4.16667,-148.194,-3687.94)">
        <path d="M104.343,958.976L99.743,956.426L109.473,938.872L114.073,941.422L104.343,958.976Z" style="fill:rgb(95,95,95);fill-rule:nonzero;"/>
    </g>
    <g transform="matrix(4.16667,0,0,4.16667,-148.194,-3687.94)">
        <path d="M109.588,961.883L104.988,959.333L114.718,941.779L119.318,944.329L109.588,961.883Z" style="fill:rgb(95,95,95);fill-rule:nonzero;"/>
    </g>
    <g transform="matrix(4.16667,0,0,4.16667,-148.194,-3687.94)">
        <path d="M114.832,964.79L110.232,962.24L119.962,944.686L124.562,947.236L114.832,964.79Z" style="fill:rgb(95,95,95);fill-rule:nonzero;"/>
    </g>
    <g transform="matrix(4.16667,0,0,4.16667,-148.194,-3687.94)">
        <path d="M86.754,923.939L91.817,926.745L86.44,936.446L81.377,933.639L86.754,923.939Z" style="fill:rgb(114,160,198);fill-rule:nonzero;"/>
    </g>
    <g transform="matrix(4.16667,0,0,4.16667,-148.194,-3687.94)">
        <path d="M80.615,946.955C79.437,949.081 76.733,949.856 74.607,948.678L73.409,948.014L80.417,935.372L85.48,938.178L80.615,946.955Z" style="fill:rgb(114,160,198);fill-rule:nonzero;"/>
    </g>
    <g transform="matrix(4.16667,0,0,4.16667,-148.194,-3687.94)">
        <path d="M105.903,911.064L100.976,919.953C98.579,924.277 93.081,925.853 88.757,923.457L87.429,922.721L97.177,905.136L105.531,909.767C105.99,910.021 106.157,910.605 105.903,911.064" style="fill:rgb(204,219,233);fill-rule:nonzero;"/>
    </g>
    <g transform="matrix(4.16667,0,0,4.16667,-148.194,-3687.94)">
        <path d="M66.456,960.557L69.039,955.896L70.847,956.898L68.263,961.559L66.456,960.557Z" style="fill:rgb(115,171,215);fill-rule:nonzero;"/>
    </g>
    <g transform="matrix(4.16667,0,0,4.16667,-148.194,-3687.94)">
        <path d="M72.89,948.95L74.697,949.952L72.067,954.697L70.26,953.695L72.89,948.95Z" style="fill:rgb(115,171,215);fill-rule:nonzero;"/>
    </g>
    <g transform="matrix(4.16667,0,0,4.16667,-148.194,-3687.94)">
        <path d="M70.259,953.695L72.066,954.697L76.358,957.076L75.138,959.277L70.846,956.897L69.039,955.896L70.259,953.695Z" style="fill:rgb(115,171,215);fill-rule:nonzero;"/>
    </g>
    <g transform="matrix(4.16667,0,0,4.16667,-148.194,-3687.94)">
        <path d="M89.484,938.133L88.524,939.865L88.395,939.794L87.706,939.412L85.48,938.178L80.417,935.372L81.377,933.639L86.44,936.446L88.666,937.679L89.356,938.062L89.484,938.133Z" style="fill:rgb(115,171,215);fill-rule:nonzero;"/>
    </g>
    <g transform="matrix(4.16667,0,0,4.16667,-148.194,-3687.94)">
        <path d="M84.165,955.226L86.101,956.299L79.562,968.096L77.626,967.023C75.127,965.637 74.216,962.46 75.601,959.961L77.103,957.251C78.488,954.752 81.666,953.841 84.165,955.226" style="fill:rgb(114,160,198);fill-rule:nonzero;"/>
    </g>
    <g transform="matrix(4.16667,0,0,4.16667,-148.194,-3687.94)">
        <path d="M65.983,959.618C66.011,959.633 66.04,959.646 66.068,959.662C74.105,964.117 78.883,972.172 79.508,980.701L60.222,970.011L65.983,959.618Z" style="fill:rgb(204,219,233);fill-rule:nonzero;"/>
    </g>
</svg>
